<?xml version="1.0" encoding="UTF-8"?><svg id="a" xmlns="http://www.w3.org/2000/svg" viewBox="0 0 2641.52 2750.87"><defs><style>.b{fill:#1abc9c;}.c{fill:none;stroke:#1abc9c;stroke-miterlimit:10;stroke-width:10px;}</style></defs><g><path class="c" d="M1131,1897s-4-46,7-68,60-105,89-118c30-21,54.5-30.5,130-53"/><path class="c" d="M1260.25,1775s102.25,100.5,116.25,144.5,44.8,225-10.5,236.5"/><path class="c" d="M1906.58,1794c-1.08,1.5-69.08,88.5-79.08,117.5-9.35,27.11-38.81,163.5-36.06,213,.32,5.85,1.89,11.57,4.64,16.75,14.94,28.23,40.63,33.67,48.92,32.75"/><path class="c" d="M1827,1676c1.39,.73,69,33,90,52,13.43,12.16,61.5,60.5,79.5,115.5s24.5,97.5,24.5,97.5"/></g><g><path class="b" d="M2293,2070c-17.01-17.01-235.53-121.3-279-139-.07,.6,.24,1.69,.64,2.78,1.04,2.86,1.68,5.86,1.77,8.9,2.21,81.29-140.96,217.48-164.41,224.32-24,7-81.22,.3-107-14s-43-23-36-118c19.29-139.44,103.19-232.73,123.54-253.58,3.07-3.14,4.39-97.56,4.46-102.24l-.02-.37-.35-3.58-.02-.42c.26-9.01,.89-33.41,.89-60.32,15-26,40-154,40-154,0,0,11.84,14.65,27.47,18.15,10.1,2.26,20.47-2.41,25.96-11.18,15.3-24.45,14.57-74.44,14.57-82.97,0-5.25,5.8-20.45,11.3-33.68,7.31-17.59,11.34-36.36,11.75-55.4,.46-21.3-.79-47.45-8.31-61-3.38-6.1-10.41-9.21-17.27-7.96-22.1,4.01-30.47,14.05-30.47,14.05,0,0,10-142,2-224s-112-160-112-160c0,0-100-79-220-77-12.9,1.31-25.07,2.98-36.52,4.9-88.79,14.91-168.43,64.19-219.61,138.27-8.11,11.74-15.36,23.85-20.86,35.84-28,61-18,173-18,173l17,152s-16-27-35-28-31,18-32,45,12,67,31,103c15,37,8,59,8,80s25,27,25,27c0,0,13,5,26-5,4,32,22,81,22,81l2,75-.5,.5s1,25-2,86c-90,0-124,3-151,37-8.44,11.61-17.99,26.55-24.25,39.84,.13-.16,.24-.24,.29-.22h0l2.96-.63c3.69-6.18,10.51-22.26,18-29,10-9,2.39,9.51,2.39,9.51,11.42-21.76,31.72-43.78,67.61-48.51,58-12,76.57-.3,78.59,2.28,.59,.76,1.18,1.5,1.86,2.18,13.06,13.22,110.29,112.71,120.55,156.54,5.33,22.79,15.84,63.45,20.57,102.6,27.52,10.5,56.47,13.4,111.43,13.4,49-1,98-6,113-15v2c16-62-59.2-38.27-123-39-89.15-1.01-90,54-101.4,38.84,4.99,41.5,3.47,81.25-17.6,96.16-41,29-106,40-128,32-11-3-84-57-116-94s-81.19-132.33-85-148l-4.5-17.5c-1,10-153.5,68.5-211.5,84.5-18.34,5.06-38.87,13.13-58.38,21.81-49.23,21.89-90.05,59.13-116.23,106.22h0c-65.56,117.93-113.29,244.92-141.65,376.84-27.14,126.23-56.82,266.31-55.73,270.14,2,7,2025-1,2025-1,0,0-149.93-483.9-212-619-11.78-25.64-69.13-55.13-72-58Zm-225.5,542.06c-15.74,0-28.5-20.62-28.5-46.06s12.76-46.06,28.5-46.06,28.5,20.62,28.5,46.06-12.76,46.06-28.5,46.06Z"/><path class="b" d="M1918,1763l-7,23s16-1,26,8,24,25,30,31c2-11-33-57-49-62Z"/><path class="b" d="M1176.33,1821.39c-1.24,2.07-2.05,3.33-2.29,3.24l-.58,.82c.09-.2,.19-.4,.29-.6-2.12,2.52-12.8,26.57,2.25,33.16,15,6,24-60,24-60-.23-4.84,11-10-3-10l-20.67,33.39Z"/></g></svg>