<?xml version="1.0" encoding="UTF-8"?><svg id="a" xmlns="http://www.w3.org/2000/svg" viewBox="0 0 1554 1554"><defs><style>.b{fill:#051a37;}.c{fill:#56575c;}</style></defs><path class="c" d="M494.22,564.66c-28.99-8.98-59.88,7.17-69.79,35.63l-129.04,370.58s-36.97,93.6,40.36,119.16c85.77,28.35,121.02-90.85,121.02-90.85l96.1-318.66c7.24-24,5.34-49.99-6.17-72.29-8.79-17.04-23.99-33.81-50.19-42.82-.77-.27-1.54-.52-2.3-.75Z"/><path class="b" d="M437.33,554.35s21.38-157.77,122.1-167.21c85.37-8.01,145.7,213.89,145.7,213.89l84.64,237.29c2.78,7.79,5.2,15.69,7.35,23.67,8.02,29.76,39.68,119.71,125.72,100.02-6.81,44.53-49,137.64-127.94,134.95-80.55-2.75-132.03-172.73-132.03-172.73l-100.72-330.62s-10.89-39.13-47.64-48.58c-18.82-4.84-77.19,9.33-77.19,9.33Z"/><path class="c" d="M895.62,439.76l-65.33,307.67s-49,174.08,65.33,178.93c76.39,3.24,99.36-124.95,99.36-124.95l24.92-118.35,117.99,326.16s27.22,95.81,107.53,75.57c61.19-15.42,36.75-101.21,36.75-101.21l-191.92-565.42s-24.5-70.17-103.44-58.03c-73.63,11.33-91.19,79.62-91.19,79.62Z"/><ellipse class="b" cx="490.01" cy="186.06" rx="89.83" ry="89.06"/></svg>