<?xml version="1.0" encoding="UTF-8"?><svg id="a" xmlns="http://www.w3.org/2000/svg" viewBox="0 0 879.22 539.11"><defs><style>.b{fill:#fff;}.c{fill:#1abc9c;}</style></defs><path class="b" d="M270.46,539.11c-5.12,0-10.24-1.95-14.14-5.86L5.86,282.79c-7.81-7.81-7.81-20.47,0-28.28L254.51,5.86c7.81-7.81,20.47-7.81,28.28,0s7.81,20.47,0,28.28L48.28,268.65l236.32,236.32c7.81,7.81,7.81,20.47,0,28.29-3.91,3.91-9.02,5.86-14.14,5.86Z"/><path class="c" d="M522.66,309.89c0-5.87,2.93-8.8,8.8-8.8h20.6c2.4,0,4.53,.77,6.4,2.3,1.87,1.54,2.8,3.7,2.8,6.5v89.4c0,1.6-.33,3.1-1,4.5-.67,1.4-1.8,2.57-3.4,3.5l-1.6,1.2c-12.53,9.07-26.33,16.03-41.4,20.9-15.07,4.87-31.33,7.3-48.8,7.3-14.13,0-27.7-1.8-40.7-5.4s-25.13-8.73-36.4-15.4c-11.27-6.67-21.53-14.63-30.8-23.9-9.27-9.27-17.2-19.53-23.8-30.8-6.6-11.27-11.7-23.4-15.3-36.4s-5.4-26.57-5.4-40.7,1.8-27.47,5.4-40.4c3.6-12.93,8.73-25.07,15.4-36.4,6.67-11.33,14.63-21.67,23.9-31,9.27-9.33,19.53-17.33,30.8-24,11.27-6.67,23.4-11.83,36.4-15.5,13-3.67,26.57-5.5,40.7-5.5,16.4,0,32.2,2.5,47.4,7.5s29.4,12.17,42.6,21.5c1.47,1.07,2.67,2.3,3.6,3.7,.93,1.4,1.4,2.83,1.4,4.3,0,1.87-.53,3.47-1.6,4.8l-10.6,17.6c-2.27,3.2-4.6,4.8-7,4.8-.93,0-1.97-.23-3.1-.7-1.13-.47-2.43-1.23-3.9-2.3-9.6-6.8-20.03-12.17-31.3-16.1-11.27-3.93-23.3-5.9-36.1-5.9-16.53,0-31.84,3.13-45.9,9.4-14.07,6.27-26.27,14.67-36.6,25.2-10.33,10.53-18.43,22.67-24.3,36.4-5.87,13.73-8.8,28.07-8.8,43,0,15.87,3,30.7,9,44.5s14.13,25.8,24.4,36c10.27,10.2,22.23,18.23,35.9,24.1,13.67,5.87,28.23,8.8,43.7,8.8,9.73,0,19.43-1.57,29.1-4.7,9.67-3.13,19.5-6.83,29.5-11.1v-72.2Z"/><path class="b" d="M608.76,539.11c-5.12,0-10.24-1.95-14.14-5.86-7.81-7.81-7.81-20.47,0-28.29l236.32-236.32L596.43,34.14c-7.81-7.81-7.81-20.47,0-28.28,7.81-7.81,20.47-7.81,28.29,0l248.65,248.65c3.75,3.75,5.86,8.84,5.86,14.14s-2.11,10.39-5.86,14.14l-250.46,250.46c-3.91,3.91-9.02,5.86-14.14,5.86Z"/></svg>