<?xml version="1.0" encoding="UTF-8"?><svg id="a" xmlns="http://www.w3.org/2000/svg" viewBox="0 0 1103 1000"><defs><style>.b{fill:#fff;}.c{fill:#ffd706;}.d{fill:#fed605;}.e{fill:#252525;}</style></defs><rect class="e" x="50" y="400" width="1000" height="200"/><path class="d" d="M63,444.6v110.24c0,3.4,2.76,6.16,6.16,6.16h71.91c3.08,0,5.57-2.49,5.57-5.57v-20.28c0-3.4-2.76-6.15-6.15-6.15h-44.49v-84.77c0-3.99-3.24-7.23-7.23-7.23h-18.17c-4.2,0-7.6,3.4-7.6,7.6Z"/><path class="d" d="M162.33,443.37v114.06c0,2.52,2.07,4.57,4.63,4.57h22.8c2.56,0,4.63-2.04,4.63-4.57v-41.87l34.73,46.44h37.89l-47.77-67.54,47.77-57.46h-34.49l-38.84,42.34-.02-35.97c0-3.52-2.89-6.37-6.46-6.37h-18.41c-3.57,0-6.46,2.85-6.46,6.37Z"/><path class="b" d="M339.95,498.49l-4-1.01c13-2.02,22-13.1,23-29.23,.56-9.01-9.38-31.25-31.52-31.25h-49.43v125h54.95c23.05,0,31.05-7.06,32-35.28h0c-1.79-14.43-10.84-25.48-25-28.23Zm-46.56-46.87h31.82c20.63,0,21.9,39.29-1.23,38.63-12.11-.35-30.59,0-30.59,0v-38.63Zm33.66,95.24c-13.48-.4-34.05,0-34.05,0v-44.35h35.42c22.96,0,24.38,45.11-1.37,44.35Z"/><rect class="b" x="377.55" y="437" width="19.43" height="125"/><polygon class="b" points="410.88 437 410.88 451.63 449.38 451.63 449.38 562 468.09 562 468.09 451.63 505.51 451.63 505.51 437 410.88 437"/><path class="b" d="M574,506.56s32-4.03,31-35.28c-1.1-34.26-31.94-34.27-31.94-34.27h-50.97v125h16.22v-55.35h18.69l30.85,55.35h22.81l-36.66-55.44Zm-35.93-16.7v-41.26h30.81s19.12,.49,19.12,20.66-19.83,20.6-19.83,20.6h-30.1Z"/><path class="c" d="M660,435s-46.38,16.51-44.8,65c2.3,70.5,65.8,68,65.8,68,0,0,71.5,1.5,71.07-68-.3-48.5-48.07-65-48.07-65v26s22.32,12.5,21.96,40.5c-.25,19.77-13.04,30.49-24.51,36.14-14.49,7.14-31.92,6-44.56-4.06-7.86-6.26-14.61-16.46-15.4-33.08-1.02-21.48,18-36,18-36l.5-29.5Z"/><path class="c" d="M670.5,418.5v51.47s0,13.24,13.12,12.88,12.41-12.88,12.41-12.88v-51.47s.47-10.47-12.76-10.74-12.76,10.74-12.76,10.74Z"/><polygon class="b" points="765 437 788.94 437 855 538 855 437 873.06 437 873.06 562 850.49 562 784 461 784 562 765 562 765 437"/><rect class="b" x="893.26" y="437" width="18.06" height="125"/><path class="b" d="M1025,465l12-12s-15.51-18.84-42.51-18c-15.99,.5-28.59,.86-45.99,19.5-14,15-15.48,33.06-16.27,45-.52,7.77,.73,15.19,2.73,21.76,7.74,25.42,30.7,43.5,57.27,43.74,.58,0,1.17,0,1.77,0,35.5-.62,47-21,47-21l-11.5-11.5s-13,18-37,17c-45.67-1.9-42.93-50-42.93-50,0,0,.93-47,45.93-49,19.01-.84,29.5,14.5,29.5,14.5Z"/></svg>