<?xml version="1.0" encoding="UTF-8"?><svg id="a" xmlns="http://www.w3.org/2000/svg" viewBox="0 0 1554 1554"><defs><style>.b{fill:#ff0004;}.c{fill:#ff2024;}.d{fill:#fff;stroke:#ff0004;stroke-miterlimit:10;stroke-width:9px;}</style></defs><path class="b" d="M287,97v1000h1000V97H287Zm955.69,965.34H333V137.48h909.69v924.86Z"/><rect class="d" x="348.53" y="155.61" width="868.55" height="882.18"/><g><path class="c" d="M1159.13,710.38c1.68,.39,5.35-.32,4.43-1.73l-6.38-.36,1.95,2.09Z"/><path class="c" d="M1169.44,698.92c-3.21-1.4-8.87-2.57-14.39-.61,6.25,.81,3.76,1.58,11.13,2.49,.92,1.42-1.67,2.89-4,2.92,1.67,.33-1.09,2.47,2.94,2.81,4.59-2.5,4.46-5.11,.16-7.15,1.3-.75,2.99-.44,4.16-.47Z"/><path class="c" d="M1116.03,557.43l.09,1.24c.14-.47,.09-.88-.09-1.24Z"/><path class="c" d="M1045.82,491.78c.7,.27,1.3-.08,1.65-.53-.8-.03-1.48-.01-1.65,.53Z"/><path class="c" d="M1035.54,477.05c.2,.36,.41,.59,.61,.88-.02-.69-.17-1.17-.61-.88Z"/><path class="c" d="M1116.03,557.43l-.19-3.24c-1.66,1.21-.28,2,.19,3.24Z"/><path class="c" d="M1150.97,681.74c.4,.42,1.06,.69,1.89,.9-.35-.34-.66-.68-.91-1.04-.34,.05-.63,.09-.98,.13Z"/><path class="c" d="M1145.48,589.01l.43,.67c.73-.18,1.59-.44,2.53-.77l-2.96,.1Z"/><path class="c" d="M1162.17,617.9c-.11-.79-5.05,1.23-7.28,1.97,2.16-.56,3.35-.5,3.99-.08,.93-.42,1.99-1.01,3.29-1.89Z"/><path class="c" d="M1170.53,670.1l.95,.71c-.29-.17-.59-.51-.95-.71Z"/><path class="c" d="M1132.99,568.65c.6-.52,1.09-1.03,1.35-1.39-.54,.4-.98,.88-1.35,1.39Z"/><path class="c" d="M468.64,727.02c-.37-.08-.62-.08-.94-.14,.51,.25,.88,.36,.94,.14Z"/><path class="c" d="M439.14,759.84l-.28-.53c-1.01-.07-2-.14-2.99-.15l3.27,.68Z"/><path class="c" d="M1012.18,456.06c.02,.08,.04,.09,.07,.15,1-.16,.54-.28-.07-.15Z"/><path class="c" d="M738.98,395.93c3.97,4.13-3.86,6.92,1.77,11.29-.84-1.97,2.68-8.94-1.77-11.29Z"/><path class="c" d="M1151.49,680.83c-.14-.38-.27-.77-.31-1.18-.06,.58,.05,.94,.31,1.18Z"/><path class="c" d="M740.75,407.22v.05l.58,.41-.58-.45Z"/><path class="c" d="M946.59,430.56c-.19,.93-.18,1.7-.15,2.44,.17-.52,.25-1.2,.15-2.44Z"/><path class="c" d="M991.35,457.73l-.85-1.19c.25,.66,.55,.98,.85,1.19Z"/><path class="c" d="M918.79,428.84c-.53-.6-.53-1.37-1.64-.98,0,.29,.02,.49,.07,.71,.55-.59,1.09-.78,1.57,.27Z"/><path class="c" d="M892.27,420.83c.03,.43,.13,.78,.2,1.17,.29-.03,.62-.02,.92-.04l-1.12-1.13Z"/><path class="c" d="M485.31,651.53c-1.6,0-3.28-.24-4.92-.54,3.7,.94,3.68,4.92,4.92,.54Z"/><path class="c" d="M1153.9,681.09c-1.35,.14-2.05,.07-2.41-.25,.12,.27,.28,.53,.46,.77,.79-.1,1.53-.24,1.95-.52Z"/><path class="c" d="M904.73,468.58l-3.69-2.02c.94,.85,2.29,1.57,3.69,2.02Z"/><path class="c" d="M590.05,505.87l-.34,1.07c.36-.12,.52-.44,.34-1.07Z"/><path class="c" d="M889.07,463.73c-.17-2.01-.62-3.28-1.2-4.2-.28,.35-.57,.63-.85,1.19l2.05,3.01Z"/><path class="c" d="M480.33,650.97s.06,.01,.06,.01c0,0-.03-.01-.06-.01Z"/><path class="c" d="M484.15,680.22c1.19-3.6-6.11-3.64-9.75-5.56-.56-5.03,5.58-.58,9.46-1.03-.97-3.25-6.43-7.31-5.49-9.29,1.15,.2,1.68-.06,2.9,.85-2.19-2.32-1.54-4.51-1-6.79,.53-2.3,.91-4.7-1.75-7.58,.68-.04,1.28,.04,1.8,.15-3.5-.66-6.89-1.79-9.24-2.77,.51-1.72-3-4.69,1.53-3.72-.51,.99,1.19,1.72,2.36,2.7l-1.22-2.46c6.75,.75,1.26,3.2,5.83,4.89-.81-4.11-4.29-10.05-1.55-11.98,6.2,1.87-.34,6.84,6.34,5.51l-3.85,3.07c10.68,.61-1.58,2.13,9.66,3.25,3.73-4.39-.86-6.92,3-11.26-2.83-2.53-5.05-1.66-7.88-4.21-1.44-4.95,2.99-4.77,6.95-4.41,3.99,.36,7.55,.89,4.87-3.47-3.28-3.13-10.42-7.17-4.73-9.09l5.97,4.43c2.96-4.45-8.07-7.36-1.17-10.26,2.11,2.2,.28,4.88,1.42,4.54,6.76-.66-2.58-4.17-1.26-6.68l6.01,2.46c.87-2.73,.97-6.06,1.23-9.43,.12-1.69,.24-3.41,.47-5.1,.25-1.68,.63-3.3,1.18-4.83,1.47,1.28,2.67,3.23,5.12,2.97,.58-4.26,3.06-7.74,6.17-10.72,3.24-2.9,7.08-5.3,10.85-7.24l-2.9-5.58c.44-.52,2.77,.44,3.23,1.66,3.41-1.18-2.79-2.19-3.75-4.64,.7-1.61,3.93,.09,4.64,1.93-.18-1.74-.22-3.74-.05-5.78,.17-2.05,.55-4.14,1.27-5.99,.7-1.87,1.68-3.54,2.99-4.79,1.3-1.25,3.01-2,5.03-2.12l.58,1.89c2.25-.92,.83-3.68-.3-6.21-1.14-2.53-1.98-4.82,1.34-4.62l.23,1.23c2.03-1.37,3.74-3.1,5.35-4.91,1.64-1.78,3.21-3.63,4.85-5.32,1.62-1.7,3.41-3.14,5.45-4.12,2.04-.98,4.33-1.5,7.06-1.22-2.29-3.35,.04-4.31,2-5.46,1.97-1.15,3.57-2.54,.07-6.88,3.9,.27,5.86,1.06,7.88,1.5,1.01,.22,2.02,.36,3.29,.31,1.26-.05,2.77-.28,4.81-.73,1.85-.85-2.18-7.26-.97-9.77l3.72,4.52c-.42-2.3-.84-4.63-1.2-6.91l5.75,4.42,.91-2.6c-.94,.28-3.17-.88-4.09-2.3,.64-2.16,3.05-2.73,5.49-2.43,2.45,.3,4.98,1.53,5.9,2.7,1.33-2.97,2.67-6.01,4.09-9.01,1.17,2.03,.47,3.53,.42,5.42,.12-3.78,1.19-2.63,2.24-1.39,1.05,1.23,2.08,2.55,2.25-.87-1.21-.79-1.71-3.05-2.3-4.09,3.76,1.78,7.59-.89,9.83-3.95l1.59,3.76c1.47-.61,2.84-1.45,4.16-2.44,1.33-.98,2.6-2.12,3.93-3.21,2.66-2.2,5.31-4.67,8.46-6.32-3.15-.45-6.07-6.82-4.49-8.43l3.72,5.02c-.62-4-3.08-1-2.83-6.44,2.76-.66,4.94,5.34,4.56,7.83l1.85-3.42c1.04,1.54,.82,2.76,1.76,4.94-.32-2.01,1.64-1.3,3.47-.92,1.83,.36,3.57,.46,2.92-2.94l.99,1.56c3.17-1.53,5.24-3.14,7.16-4.71,1.95-1.51,3.75-2.99,6.33-4.33-2.08-4.93,.48-4.78,.37-9.47,2.36-.05,5.05,.43,7.72,.62,2.68,.21,5.29,.07,7.66-1.02,2.47-3.77-.63-4.6-.2-8.15,2,4.45,6.71,2.18,5.4,6.41,1.39-.74,2.53-1.34,3.55-1.93,1.03-.58,1.96-1.11,2.9-1.77,1.88-1.32,3.83-3.07,6.99-6.24-1.44-1.62-2.65-2.11-2.68-3.86,1.14-1.25,3.79,.88,4.31,3.18l-.21,.59c1.59-2.39,3.92-3.13,6.53-3.07,2.62,.09,5.5,.89,8.32,1.81,2.82,.89,5.52,1.71,7.78,1.58,2.26-.12,4.08-1.23,5.2-4.08l-.26,.58,5.95-6.87c3.52,.02-1.15,4.04,1.99,6.38,2.92-4.92,6.13-5.25,9.18-5.24,3.06,.02,5.96,.36,8.69-2.91,3.87,6.6,8.19,5.57,12.68,3.85,2.24-.88,4.55-1.78,6.79-2.06,1.12-.13,2.23-.09,3.31,.24,.54,.16,1.07,.4,1.59,.72,.48,.33,1.19,.7,1.19,1.28-.17-1.11-.35-2.23-.54-3.34,.04-1.68,.32-1.24,.53-.26,.19,.98,.33,2.48,.41,2.86-.06-2.65-.52-2.99-.37-4.87,.24-.32,.51-.47,.79-.61,.12-.07,.36-.1,.54-.14,.11-.02,.16-.04,.32-.05h.71c1.88,.07,3.78,.31,5.67,.7,3.79,.78,7.57,2.1,11.31,3.71,7.49,3.19,14.8,7.44,22.12,10.29,5.38,1.9,6.34-16.65,11.95-7.36l-3.19,5.78c6.34-2.64,12.13-1.38,17.81,.06,5.69,1.46,11.27,3.08,17.51,1.32-1,1.25-1.46,3.07-2.52,2.79,1.24,4.98,8.47,2.3,9.44-1.28,1.6,.85-.43,3.36,.15,5.46,1.63,3.17,7.26-4.13,7.33,.59,.02,.77-1.03,1.26-1.54,1.49,2.07-1.74,6.83,2.41,6.78-3.05,3.4,3.56,8.46-.09,10.83,3.88,1.88-2.51,3.43-1.32,4.88-.48,1.44,.85,2.78,1.38,4.33-2.5-2.78,8.13,5.02,8.78,8.81,5.8-1.65,2.2,1.38,3.27-.72,6.37,2.92,.8,6.05,.19,6.95-4.17,1.03,5.79,4.34,4.69,7.28,3.92,2.93-.77,5.49-1.29,4.74,5.44,10.01-1.26,19.04-1.18,27.37,.11-1.77,3.91-3.93,3.25-6.04,2.67-2.11-.57-4.18-1.01-5.66,3.23,8.39-.48,15.4-5.53,21.66-.56,1.36,1.86-2.53,2.96-3.72,4.04,4.24-.13,7.55,1.62,10.82,3.15,3.28,1.52,6.43,3,10.56,2.35-.37,.71-1.41,1.18-2.33,1.47,1.34,.33,2.28,2.47,3.85-1.09l-1.65,.38c.25-3,2.76-5.1,5.41-6.71,2.64-1.61,5.44-2.76,6.22-4.04-7.07,8.95,4.9,5.59-4.78,16.52,1.12-.26,2.96-1.4,3.97-3.81,.84,1.28,.49,2.83-2.04,4.85,5.22,.36,5.64-4.1,9.5-1.97-.9,1.66-2.03,1.89-3.47,3.63,1.84-1.11,3.69-2.21,5.41-2.64,1.7-.41,3.26-.13,4.51,1.47-.75,.89-1.09,2.39-2.04,1.83,2.91,1.31,6.52,.45,9.9,.23,3.38-.24,6.67-.02,8.77,3.36-6.02,5.92,.63,3.57-2.78,9.8l4.28,.16,.55-3.71c2.74,1.8,7.97-.91,9.1,2.6l-3.65,1.1,5.91,2.26-1.45-4.16c4.84-1.2,4.64-7.69,7.31-3.58-1.16,.07,2.75,2.01,1.8,6.44,0,0,0,0-.02,0,2.64-.91,5.45-1.9,6.45,.99-.8,2.22-4.98,6.08-5.52,7.55,4.75-3.85,7.18,3.21,12.63-.6-1.44,.76-3.71,3.72-3.99,4.45l3.98-3c.29,2.18,0,2.9-2,5.1,3.09,3.52,4.34-8.03,6.31-1.58-.58,.04-.86,.73-2.02,.76,.78,1.24,1.81,2.12,2.96,2.82,1.13,.72,2.38,1.28,3.61,1.83,2.45,1.12,4.92,2.19,6.05,4.77-1.77,3.2-2.88,2.8-3.87,2.33-1.02-.45-1.92-.99-3.21,1.84,3.15,1.8,7.29,2.67,11.29,3.81,3.9,1.22,7.59,2.75,9.56,5.79-.12-.5-.26-.99-.4-1.48,3.86-3.3,3.95-1.45,3.77,1.08-.17,2.53-.64,5.71,2.32,5.31-1.15-.1-4.79,3.12-3.83,2.49,.54,1.13,1.38,1.99,2.38,2.76,1,.77,2.21,1.4,3.59,1.99,2.76,1.18,6.22,2.17,9.78,3.93l-2.54,1.02c.09,3.66,3.89,6.44,4.82,9.59,2.56-.93,3.34,.7,5.61-2.48-.69,2.08-.95,3.77-.88,5.17,.04,.7,.16,1.32,.35,1.89,.18,.58,.42,1.1,.73,1.57,1.22,1.88,3.37,3,5.59,4.08,2.25,1.05,4.41,2.18,5.77,3.84,1.33,1.68,1.83,3.92,.38,7.33-.55-.83-3.21-.71-2.76-.06,1.97,1.5,3.82,3.09,5.76,4.66,3.43-2.79,1.77-2.19,3.86-5.29,2.68-.62,5.5,.08,6.46,1.63-4.23-1.28-5.99,3.72-7.38,6.12,1.03-.89,2.56-1.25,3.67-2.05-4.84,7.21,7.93-3.94,5.97,3.25l-2.14,.9c1.97,1.09,5.54,1.19,6,3.36-4.05,3.17-3.09-.68-6.83,1.22,.42,.6,1.34,.91,2.42,1.14,1.06,.24,2.3,.39,3.39,.61,2.18,.45,3.78,1.22,2.13,3.55-1.83-.47-2.67-2.05-4.48-2.5-3.97,5.32-2.5,4.87-2.38,7.17l.03-.24c-.08,1.84-.11,3.64-.29,5.49l.95-1.81c6.7-1.27,8.05,.21,8.92,2.02,.44,.91,.76,1.92,1.6,2.76,.42,.42,.97,.8,1.73,1.11,.74,.32,1.68,.57,2.91,.72-4.68-.64-5.88-.29-6.53,.37-.65,.67-.85,1.73-3.56,2.7-1.01,1.77-1.97,4.16-3.66,4.3,2.56,.14,2.08,1.36,1.87,2.57-.2,1.21-.12,2.4,3.64,2.64-1.64,.78,.65,2.32-3.87,3.48,2.33,2.2,2.79-1.77,5.04-2.37,3.73,1.02,2.84,4.25,2.28,7.49-.14,.82-.24,1.63-.29,2.44-.05,.81,0,1.59,.23,2.33,.46,1.48,1.65,2.76,4.21,3.7,1.27,1.09,2.62,1.87,4.01,2.5,1.35,.64,2.72,1.13,4.09,1.62,2.73,.98,5.41,1.96,7.61,4.25-1.2,1.26-2.94,1.29-4.37,1.02-1.43-.26-2.55-.83-2.55-.83-.95,1.75-1.17,3.11-.81,4.3,.34,1.2,1.21,2.26,2.55,3.37-1.7-.19-2.91,.68-4.77,1.93,.92,2.01,6.9,.01,4.84,3.41-2.13-.08-5.5-.03-7.74-.61,2.18,2.11,6.17,3.89,8.21,6.26-3.06,1.27-5.09-.71-7.31-1.21,1.91,2.62,4.15,7,9.35,7.14l1.48-2.21c.43,1.06-4.24,1.26-5.29,.63-4.37-1.84,1.13-3.94,2.94-4.43l1.49,1.69c5.18-1.9,4.44-3.81,2.36-5.64-2.15-1.83-5.58-3.57-5.68-5.51l8.07-.07c-2.42-.88-4.84-1.72-7.25-2.53,1.83-1.28,6-2.87,7.57-1.2,3.19-3.69-3.23-1.83,.37-5.23,.59-.43,.99-.4,1.36-.23l-3-2.15c1.75,.12,5.29-1.84,4.62,.14,1.56-3.04-.4-4.69-2.07-5.94-1.67-1.27-3.07-2.15-.5-3.9l.59,.27c-2.33-3.02-3.76-2.75-5.63-2.13-1.87,.63-4.18,1.57-8.18,.15,4.22-2.52,8.41-5.09,12.59-7.73l-5.72,1.15c0-.76-.1-2.24,2.19-2.74-4.67-1.26-2.24,1.24-6.31,.99,1.92-2.48,.53-4.54-.28-6.42-.4-.94-.66-1.85-.3-2.78,.34-.92,1.3-1.86,3.38-2.88-4.58,.45-1.92,4.3-6.18,1.99,4.43-2.29,3.62-3.15,2.1-3.98-1.53-.84-3.76-1.62-2.26-3.97,5.09-1.1,3.75,2.81,6.75-1.97-4.39,.78-4.47-.86-3.96-2.91,.54-2.06,1.82-4.6,.49-5.51-3.16,1.38-4.43,.35-5.41-1.43-.93-1.79-1.79-4.25-3.83-5.76,1.1-.4,.97-2.73,.58-5.61-.38-2.88-1.22-6.2-1.18-8.71l1.07-.47c-6.47,2.74-7.44-1.73-10.41-3.64,3.63-2.08,5.33-2.46,7.86-1.92l-1.65-2.58c-2.28,.56-3.78,.38-5.49-.85l4.81-2.14c-1.21-1.66-3.56-2.59-5.7-3.78-2.12-1.22-3.9-2.78-3.94-5.93-2.07,1.28-4.27,4.07-6.68,6.19-2.41,2.12-5.01,3.6-7.8,2.4,2.04-1.68,5.59-4.45,7.26-3.92-.54-.19-2.69-.09-2.34-1.46,1.63-.3,3.24-.57,4.85-.82,.26-3.04-3.72,1.15-4.46-.57,3.06-2.17,1.35-2.67,3.92-4.21,.58,.17-.28,2.22,1.34,1.94-.71-2.09-.44-5.47,1.32-7.86-1.6,1.43-4.05,3.02-5.36,2.07-2.61-3.05,2.79-3.85,2.87-6.91-2.67,.83-2.18-2.87-6.61,.57-.71-.93,1.19-2.74,2.09-4.05-1.63-.04-3.28-1.85-4.96-2.91-1.71-1.04-3.36-1.35-4.88,1.46l.04,.65c-.15,0-.23-.08-.41-.1h0c-2.16-.37-3.65-1.33-4.78-2.63-1.13-1.3-1.87-2.96-2.63-4.61-1.49-3.33-2.69-7.04-5.9-8.59l1.35-1.3c-2.18-.67-3.98-2.02-5.84-3.1-.93-.54-1.87-1.01-2.88-1.29-1.02-.26-2.12-.32-3.33-.08-.84-.8,.34-4.38,2.24-5.66-3.23-1.06-4.82,.23-6.04-5.01,4.5-.37,1.17-2.89,3.96,.35-1.84-3.9-.62-6.75-7.22-5.74,4.25-2.63,1.7-6.63-.75-6.73-.01,1.48-.02,2.95-.07,4.44-2.07-.88-3.26-2.36-4.46-3.9l4.84-4.2c-.38-2.81-1.84-4.2-3.73-4.89-1.89-.7-4.26-.63-6.44-.68-4.38-.08-8.03-.46-6.76-7.46-4.39,2.27,1.76,5.15-2.92,8.13-2.47-2.87-.34-12.55-1.32-13.3-2.29-5.91-9.31,4.77-12.37-.27-.69,2.27-3.56,7.56-8.01,7.14-2.59-2.69,1.38-10.4,4.37-10.6,.86,.34,.83,1.17,.38,1.79,1.47-.02,3.35,.06,3.46-2.79l-1.66,1.61c-.29-2.94-4.81-5.6-1.76-8.04-3.59,.23-3.03,2.44-1.9,4.58-2.29-5.44-6.34-4.16-9.44-8.67,.03,1.48-.74,4.12-1.39,3.69-2.37-3.12-3.63-2.6-4.86-1.53-1.23,1.07-2.44,2.69-4.8,1.88-.66-4.37,5.01-6.57-.72-6.6-1.46-3.55,2.41-5.52,4.4-6.49-3.06,.7-4.57-.93-5.57-3.04-1-2.11-1.49-4.67-2.45-5.66l3.01-.41c-1.8,.24-2.83-.37-3.89-.98l-.94,4.64c-.86-1.39-1.91-1.98-1-3.61-2.69,1.92-2.59,7.12-7.03,9.34-.58-2.9-6.14-.46-3.95-6.07,4.27,4.55,2.19-5.64,7.1-4.15-1.2,.18-2.23-.4-3.13-1.77,.12-.69,.75-1,1.26-1.13-2.62-7.43-5.44,4.79-10.59,2.03,2.18-2.68,1.64-6.33,.45-6.12,2.1,1.13-1.5,5.54-4.56,6.9-2.19-4.03-4.51,0-6.12-1.13l1.47,2.07c-2.15,2.71-3.62,1.52-6.39,1.38,.92-2.47,2.88-.63,2.55-2.07-2.56,2.06-3.35-.02-4.2-2.38-.85-2.34-1.76-4.96-4.41-3.97-.76-2.85,2.44-5.85,1.57-7.94-5.9,2.12-2.66-6.21-8.5-4.81-.51,4.71,.12,3.78-4.67,6.53l8.42,.15-7.2,4.07c2.11,.98,5.66-.67,6.64,.6-3.66,2.43-2.98,1.51-3.47,5.39-.2-7.49-7.32,1.14-8.88-4.5l4.45-10.31c-1.63-3.37-4.51-3-7.64-2.43-3.14,.55-6.56,1.39-9.41-1.26l1.46,2.67c-2.52,3.81-4.36-1.06-7.2-.17,1.53-3.43,.64-5.22,.52-7.76-.86,2.65-4.9-2.11-8.07,4.72l-1.36-5.72c-2.42-1.93-4.88,.03-7.32,2.1-2.45,2.09-4.87,4.29-7.28,2.8,2.89-3.33,1.33-6.66,5.82-8.22-1.76-.64-3.14-1.83-4,.63-.3-2.6-6.49,3.17-7.01-.73-1.26,1.33-2.7,4.99-4.58,4.05,.01-.79,.57-1.77,.57-1.77-.57,1.76-3.85,1.41-3.38,5.92-.94-6.42-4.84-7.41-8.68-8.12-3.86-.69-7.64-1.18-8.68-6.66-2.12,.06-4.44,.05-6.67-.06-2.24-.09-4.4-.28-6.2-.62,.51-1.03,.49-1.8,1.06-1.25-4.03-4.69-5.72,9.63-10.28,4.44-1.36-6.6,3.76-2.43,2.55-5.1,1.13-6.08-.67-6.11-3-5.59-2.33,.53-5.17,1.6-6.23-2.37l1.09-.49c-1.95-4.79-8.16,2.88-12.68,.97,0,0,.47-1.01,.43-1.81-4.62,5.41-11.13,6.15-16,6.95,2.37-4.45,2.58-2.09,2.69-7.07-2.18,.27-.98,7.84-5.3,8.38-.79-2.86-3.28-5.71-2.69-10.92l3.92,.48c-.68-7.06-5.07-.75-6.88-2.29l.81-2.86c-6.16-.16-7.55,7.15-13.82,5.54l.28,2.32c-4.69,6.69-2.23-4.59-6.59,.26l.14-7.58c-2.62,1.41-9.21,5.9-13.51,6.72,3.11-5.18,8.4-7.27,11.93-10.06-2.3-.43-7.95-.65-9.66,2.85,1.03-.58,2.47-2.23,3.21-.95-3.69,5.41-7.75,7.76-12.28,7.04,1.34-7.16-1.54-8.46-5.03-9.38-1.74-.47-3.64-.83-5.25-1.8-.4-.24-.79-.52-1.15-.85-.51-.35-1.01-.74-1.47-1.19-.91-.9-1.76-2.05-2.42-3.52-.85,.27-1.68,.49-2.49,.66-.81,.33-1.62,.66-2.41,.92-.79,.27-1.53,.5-2.3,.69-.38,.1-.76,.18-1.15,.26-.26,.06-.51,.11-.77,.16-2.05,.36-4.2,.25-6.41,0-4.42-.54-9.14-1.4-13.87-.11,5.39,10.52-2.74,.82-.04,12.13-2.05,1.12-2.92,1.08-3.25,.38-2.65-1.89-5.3-3.64-8-5.46-2.27-2.98,1.59-2.95,.88-5.46-5.07,.15-3.03-4.4-6.94-6.73,1.52,3.93-.47,6.18-3.61,5.22l5.06,4.41c-2.74,3.74-4.72,1.64-6.74-.4-2.01-2.03-4.08-4.06-6.81-.25l1.34-4.08c-1.53,1.48-4.8,2.25-7.84,3.88-3.04,1.65-5.8,4.31-6.27,9.25-.96-1.13-2.63-3.97-1.3-5.2-2.19,.23-4.28,1.27-6.31,2.63-2.02,1.37-3.95,3.16-5.85,4.74-3.8,3.2-7.45,5.74-11.52,4.15l-.28-2.91c-1.28,1.3-.95,5.96-3.79,3.91-.28-1.14-.3-2.89-1.07-2.81-.5,1.22-2.42,6.06-4.98,5.24l.65-3.62c-4.63-.31-7.03,2.72-8.95,6.27-.96,1.79-1.81,3.69-2.76,5.47-.94,1.79-2,3.4-3.43,4.52-1.58-3.87-4.16-5.8-6.82-6.75-2.66-.95-5.41-.93-7.21-.82l-.37-1.13c-2.39,.8-4.38,2.03-6.12,3.54-1.74,1.51-3.23,3.26-4.59,5.22-1.36,1.94-2.63,3.98-3.97,5.97-1.33,2-2.76,3.89-4.37,5.72-2.29-1.35-4.62-1.66-6.99-1.37-2.36,.3-4.79,1.14-7.17,2.3-2.4,1.13-4.84,2.42-7.33,3.44-2.51,1-5,1.91-7.65,2.03,2,.54,3.24,5.66,2.32,7.22-2.75-.3-1.85,8.01-5.73,1.41l.72-.3c-5.44-5.41-8.11-1.22-11.12,.56l5.21,8.59c-3.93-1.78-6.89-1.41-9.34-.15-2.44,1.29-4.35,3.49-6.01,5.78-1.68,2.26-3.22,4.46-5.08,5.65-1.87,1.18-4,1.45-7.04-.31-.11,3.34-2.22,5.04-2.27,8.32l-3.39-4.18c-2.75,1.48-4.81,2.62-6.8,4.12-.99,.75-1.97,1.59-2.98,2.63-1,1.06-2.04,2.31-3.21,3.84l-1.48-3.88c-1.7,1.35-.05,5.11,1.74,8.86,1.78,3.76,3.69,7.49,2.46,8.96l-6.44-4.92c-2.55,2.65-6.46,4-9.59,6.17-3.15,2.13-5.73,4.88-5.4,10.06-.8-.87-2.38-2.59-1.82-3.7-1.24,1.23-4.51,2.87-6.34,5-1.78,2.17-2.07,4.79,2.55,7.85-2.77-2.28-4.13-.92-4.81,1.62-.7,2.52-.54,6.32-.52,8.82l-3.77-3.76c1.61,3.42,2.79,5.4,3.38,7.15,.58,1.73,.6,3.22,0,5.62-1.2,.45-3.96-1.78-2.01-2.13-4.39,1.26,2.34,5.25-2.53,7.08l-1.76-3.3c-2.57,2.76-.87,3.63,1.16,7.56,.42,3.11-5.12,4.94-9.37,2.76,2.13,2.06,4.27,5.91,1.92,6.96-1.68-.75-2.17-2.03-2.41-2.66-1.61,.8-2.42,1.91-2.83,3.11-.38,1.22-.35,2.54-.34,3.77,.04,2.47,.06,4.59-3.3,5.05-1.55-.83-2.44-1.05-3.07-1.01,2.72-4.18,5.11-7.41,5.23-6.88-4.1-2.64-7.01,.39-10.97-5.99,.67,2.4,1.96,5.85,2.59,8.93,.64,3.09,.7,5.87-1.3,6.98-.51-.07-1-.15-1.72-.4l-.26-.63c-.88,.54-.91,1.48-.59,2.55-1.34,.68-2.24,1.1-2.9,2.13-3.74-1.58-4.18,3.04-5.34,4.73,4.76,2.4,2.78,4.31,7.81,4.24-.49,.1-.37-.63,.08-1.9,0-.34,.11-.69-.07-1.01,.11,.11,.23,.23,.34,.35,.5-1.22,1.23-2.78,2.11-4.52,1.59,2.73,2.79,5.25-.87,5.74,2.52,2.55,5.07,5.19,6.24,6.53-7.79-1.19-13.83,1.65-18.27,.24-.03,3.46-1.24,6.92-1.42,10.52-.16,3.61,.57,7.3,4.38,11.09,.49,2.09-3.42,.62-5.12,.58-.52-1.32,.1-2.35-.99-3.43,.47,2.12-.33,4.56-.49,6.92-.16,2.36,.4,4.65,3.47,6.36-4.57,2.77-5.02-4.73-6.25,1.21l-1.67-1.56c-7.43,3.37-5.04,9.62-2.88,15.61,1.05,3,2.08,5.99,1.71,8.68-.39,2.69-2.08,5.1-6.51,7.09,1.12-.58,1.64-.88,2.82-.7-5.29,6.03-6.04,13.81-6.96,21.36-.94,7.58-2.09,14.9-8.5,21.03-2.8,3.68,1.47,5.01,4.37,8.1l-5.8-.18c1.91,1.83,3.8,3.63,5.74,5.42,1.87,3.39-2.03,5.36-5.41,7.74-3.38,2.35-6.25,5.13-2.2,9.59l3.96-.49c-1.11,2.66,1.23,8.95-3.14,8.01,.67,.36,3.9,1.32,1.78,2.19l-3-.22c1.48,2.45,2.98,4.87,4.51,7.26-1.29,2.54-4.23,2.13-7.02,2.03-2.78-.09-5.4,.11-5.93,4.15,.5,1.54,2.58,3.8,4.83,5.52,1.12,.86,2.28,1.59,3.29,2.04,1.01,.49,1.86,.65,2.36,.32,.16-1.34,1.94-3.05,4.95-3.04l1.5,2.64c4.42,.31,8.89,.83,13.04,.62,4.15-.1,7.94-.88,11.14-3.52-1.75-1.36-3.48-2.79-5.19-4.25l4.36-1.02,.07,3.36c4.13-1.66,.64-3.04-1.7-4.6,2.3-.16,3.93-.61,4.84-1.33-2.69-1.53-5.41-3.09-8.08-4.7,3.5-.16,6.67,2.4,8.83-.07-3.73-2.25-7.9,1.08-10.17-2.31,4.21-1.59,7.4-.64,4.24-3.32,2.3-.07,3.69,.58,4.59,1.59-2.5-2.33-.54-5.5-5.05-7.15,5.17-1.4-.32-7.14,7.94-5.73-1.91-.92-5.95-4.57-5.99-6.53,9.32,5.04,1.76-6.95,12.22-4.15-4.19-2.03-4.79-4.5-4.77-7.1,0-2.61,.57-5.35-1.37-8.11,.64,.4,1.96,1.2,1.42,1.49,1.27-2.35,4.07-2.48,6.11-3.68-7.17-1.96-7.96-6.27-11.86-9.49,7.74-1.35,8.02,3.96,14.97,4.62-5.9-1.26-4.54-6.7-9.66-6.92,4.9-1.23,2.62-1.48,8.9-1.09-8.88-2.8-.96-2.55-5.94-5.98,5.38-2.12,8.64,1.51,6.96-2.92,1.62-.47,2.98,.35,3.95,1.26,.97,.92,1.53,1.94,1.53,1.94Zm20.57-88.99l.09,.05c-.29,.74-.54,1.38-.7,1.79,.14-.38,.32-.9,.61-1.84Zm3.93-6.65c-.68,.69-1.33,1.66-1.95,2.73-1.72-.73-3.19-1.96-2.69-2.58,.82,1,2.71,0,4.64-.15Zm-40.63-3.91c0-1.55,1.14-1.44,2.18-1.06-.23,.6-.43,1.34-.59,2.38,.16,.13,.32,.31,.49,.46-.83-.61-1.59-1.2-2.08-1.77Z"/><path class="c" d="M472.98,586.16c0,.22,.15,.43,.08,.67,.54-.01,1.02-.04,1.44-.12l-1.24-1.22c-.09,.23-.2,.45-.28,.67Z"/><path class="c" d="M1116.13,558.88l-.02-.21c-.06,.24-.14,.48-.34,.77,.12-.25,.25-.36,.36-.56Z"/><polygon class="c" points="585.1 513.08 584.25 512.04 584.49 513.38 585.1 513.08"/><path class="c" d="M1127.02,605.32c-.36,.31-.69,.7-.88,1.17,.29-.2,.58-.65,.88-1.17Z"/><path class="c" d="M1134.77,621.97l-.53,3.14c.46-1.46,.55-2.42,.53-3.14Z"/><path class="c" d="M1138.32,635.74c.93-.21,1.59-.44,2.21-.65,0-.02,0-.02,.02-.04l-2.23,.7Z"/><path class="c" d="M976.81,490.39c-.18-.06-.38-.08-.6-.02-1.6,.38-.64,.39,.6,.02Z"/><path class="c" d="M1041.41,513.3c-1.15,.38-2.27,.76-3.23,.83,.76,1.02,1.47,1.64,3.23-.83Z"/><path class="c" d="M905.13,468.81s.01-.04,.04-.09c-.16-.03-.29-.09-.44-.14l.4,.23Z"/><path class="c" d="M1035.64,512.27c.41,1.56,1.35,1.95,2.54,1.87-.61-.86-1.26-1.98-2.54-1.87Z"/><path class="c" d="M1152.81,693.95l-.11,.69c.35-.07,.64-.08,.86-.06l-.75-.63Z"/><path class="c" d="M1153.56,694.59l.75,.63c-.06-.34-.15-.62-.75-.63Z"/><path class="c" d="M1155.9,696.56l-1.59-1.34c.08,.54,.02,1.22,1.59,1.34Z"/><path class="c" d="M1151.6,675.43l-1.94,.25c.42,.02,1.05-.06,1.94-.25Z"/><path class="c" d="M1149.64,670.15c-.09,1.42-3.16,4.25-1.52,5.73l1.54-.2c-3.01-.13,3.46-5.11-.02-5.53Z"/><path class="c" d="M1165.06,639.61l.27,5.35c1.65-1.52,3.86-3.58,5.12-1.51,3.59-8.25-3.9,2.8-5.39-3.84Z"/><path class="c" d="M1161.84,623.62c2.05,2.16,2.73-1.23,3.86-1.57-2.47-.88-3.08-1.06-3.86,1.57Z"/><path class="c" d="M1094.45,530.01l3.53-3.35c-2.06-.97-1.3,1.36-3.53,3.35Z"/><polygon class="c" points="1061.92 534.88 1061.47 538.42 1065.03 535.59 1061.92 534.88"/><polygon class="c" points="1073.47 499.85 1074.65 499.88 1070.7 499.06 1073.47 499.85"/><path class="c" d="M898.32,417.64l-1.06,5.93c1.66-.63,3.84-7,1.06-5.93Z"/><path class="c" d="M816.55,405.12c-.37-3.1-2.36-5.4-4.25-2.72,1.77,.7,3.19,3.32,4.25,2.72Z"/><polygon class="c" points="573.23 461.93 573.5 459.28 571.79 462.56 573.23 461.93"/></g><g><path class="c" d="M782.11,522.47c-.32,.79-.49,2.12-.4,3.17,.03,.52,.19,.99,.44,1.28,.22,.29,.51,.42,.91,.28l1.78-6.13-1.3,.7c-.45,.23-.85,.47-1.42,.7Z"/><path class="c" d="M790.55,535.3c2.09-2.76,4.95-7.71,4.8-13.59-2.69,5.69-2.71,3.12-5.59,9.97-1.52,.51-2.2-2.35-1.65-4.61-.72,1.53-2.1-1.68-3.37,2.15,1.3,5.06,3.48,5.55,6.55,1.97,.31,1.45-.45,2.99-.75,4.12Z"/><path class="c" d="M891.03,609.67l.51-.95c-.34,.32-.48,.64-.51,.95Z"/><path class="c" d="M854.42,664.79c.43-.42,.34-1.08,.09-1.6-.26,.62-.46,1.18-.09,1.6Z"/><path class="c" d="M839.92,663.89c.32,.08,.57,.08,.85,.11-.48-.43-.86-.62-.85-.11Z"/><path class="c" d="M891.03,609.67c-.45,.81-.91,1.6-1.42,2.39,2.02-.35,1.27-1.35,1.42-2.39Z"/><path class="c" d="M812.71,524.22c-.57,.18-1.11,.65-1.66,1.31,.47-.17,.91-.3,1.35-.37,.1-.32,.19-.61,.31-.94Z"/><path class="c" d="M870.65,585.32l-.42-.4c-.62,.39-1.34,.9-2.12,1.49,.84-.37,1.68-.73,2.54-1.09Z"/><path class="c" d="M850.15,571.25c.38,.49,3.22-4.04,4.6-5.93-1.4,1.73-2.31,2.42-2.96,2.51-.51,.88-1.04,1.98-1.64,3.42Z"/><path class="c" d="M813.79,546.82l-.95,.51c.26-.17,.65-.29,.95-.51Z"/><path class="c" d="M879.94,599.22c-.67,.43-1.24,.84-1.56,1.12,.59-.33,1.1-.71,1.56-1.12Z"/><path class="c" d="M748.36,201.61c.38,.01,.62-.02,.95-.02-.54-.16-.92-.2-.95,.02Z"/><path class="c" d="M774.04,167.66l.3,.46c1.01,.03,2.01,.05,2.99,.03l-3.29-.49Z"/><path class="c" d="M815.94,664.14c.06,.05,.07,.05,.12,.08,.45-.72,.14-.54-.12-.08Z"/><path class="c" d="M719.01,578.89c-2.31-.99-2.91-2.68-3.43-4.34-.55-1.64-1.14-3.34-4.29-4.1,.83,.64,1.7,2.71,2.96,4.59,1.24,1.89,2.85,3.6,4.75,3.84Z"/><path class="c" d="M813.32,525.09c.42,.04,.84,.1,1.23,.25-.51-.31-.89-.38-1.23-.25Z"/><path class="c" d="M711.29,570.46l-.03-.03c-.21-.04-.41-.07-.61-.1,.26,.05,.42,.09,.64,.14Z"/><path class="c" d="M763.29,670.66c0,.95,.14,1.68,.3,2.38,.04-.55-.02-1.22-.3-2.38Z"/><path class="c" d="M804.19,677.3l-1.12-.56c.47,.43,.83,.54,1.12,.56Z"/><path class="c" d="M741.77,674.27c-.4-.54-.37-1.28-1.26-.81-.01,.28,0,.48,.03,.69,.46-.62,.89-.86,1.24,.12Z"/><path class="c" d="M722.65,666.38c-.12,.41-.15,.74-.22,1.12,.23,0,.47,.06,.69,.08l-.47-1.19Z"/><path class="c" d="M752.63,276.46c1.49-.57,3.14-.95,4.77-1.25-3.79,.47-5.23-3.12-4.77,1.25Z"/><path class="c" d="M812.03,527.14c.46-1.27,.83-1.87,1.29-2.06-.31-.01-.61,.03-.92,.08-.26,.76-.45,1.48-.38,1.98Z"/><path class="c" d="M729.15,714.49c-1.47-.72-2.93-1.42-4.38-2.19,1.13,.93,2.73,1.69,4.38,2.19Z"/><path class="c" d="M757.4,453.26l-.66-.88c-.11,.35,.05,.66,.66,.88Z"/><path class="c" d="M710.79,707.63c-.03-2.08-.4-3.47-.95-4.55-.37,.28-.73,.48-1.13,.97,.67,1.2,1.37,2.41,2.08,3.58Z"/><path class="c" d="M757.46,275.2s-.06,0-.06,0c0,0,.03,0,.06,0Z"/><path class="c" d="M744.19,249.69c-.07,3.73,6.91,1.6,10.96,2.3,2.09,4.41-5.12,2.18-8.68,3.78,1.92,2.74,8.41,4.73,8.18,6.81-1.15,.18-1.56,.59-3.02,.15,5.65,2.81,.47,8.72,7.56,11.99-.62,.27-1.2,.41-1.73,.49,3.5-.63,7.07-.8,9.61-.74,.16,1.67,4.5,3-.07,3.74,.11-1.03-1.74-1.07-3.18-1.52l2.03,1.71c-6.56,1.73-2.34-2.34-7.22-2.23,2.22,3.37,7.77,7.23,5.96,9.89-6.44,.69-2.31-6.07-7.97-2.45l2.38-4.11c-10.11,3.33,.65-2.48-10.17,.61-1.75,5.38,3.42,5.89,1.66,11.25,3.61,1.12,5.29-.52,8.91,.6,6.61,7.41-16.09,6.32-7.37,11.68,4.33,1.34,12.51,1.71,8.28,5.77l-7.32-1.18c-.6,5.18,10.55,2.71,5.77,8.23-2.89-.9-2.51-4-3.36-3.2-5.68,3.63,4.19,2.38,4.25,5.08l-6.45,.7c1.14,5.47,5.94,11.42,7.26,17.48-1.93-.29-3.97-1.29-5.92,.18,3.4,7.6-.42,16.41-4.08,23.9l5.64,2.7c-.05,.66-2.49,1.28-3.59,.59-2.05,2.93,3.54,.07,5.76,1.41,.43,1.63-3.16,2.24-4.85,1.24,4.84,4.99,10.51,14.28,4.66,19.78l-1.68-1.01c-2.17,4.23,11.53,4.46,6.42,8.45l-1-.72c-2.21,9.12,3.12,19.03-5.14,26.14,8.06,1.13-3.38,9.06,7.84,9.39-5.43,5.3-7.46,3.87-11.03,11.25-.47,1.96,7.06,2.74,8.28,5.13l-5.85,.19,6.21,3.13-6.96,1.9,1.55,2.22c.33-.91,2.59-1.97,4.28-1.87,2.73,3.47-3.89,8.69-6.88,8.85l5.14,8.23c-2.36-.13-3.2-1.51-4.73-2.58,6.08,4.32-6.15,.95-.58,4.91,1.32-.58,3.49,.22,4.68,.28-3.49,2.12-3.42,6.75-1.85,10.14l-4.05-.57c-.89,6.21,2.23,13.01,2.31,19.96,1.83-2.54,8.83-2.12,9.55-.1l-6.16,.96c3.85,1.23,2.28-2.18,7.02,.41-.66,2.61-7,1.9-9.04,.46l2.22,3.11c-1.85,.23-2.84-.49-5.2-.63,1.94,.6,.42,2-.75,3.46-.14,.25-.29,.19-.42,.22l-.35,.04c-.2,.03-.31,.04-.28,.07,.06,.05,.68,.11,2.36,.34l-1.85-.16c-.02,.32,.77,.75,1.47,1.44,.45,.41,.85,.9,.98,1.33,2.71,1.65,3.77,2.44,4.7,3.29,.93,.85,1.73,1.71,3.94,3.68-.35,.11-.8,.12-1.3,.06-.25-.03-.51-.08-.77-.14-.05,0-.16-.06-.28-.12l-.32-.17-.63-.34c-2.41-1.29-4.17-2.44-4.71-2.13,.47,1.25,1.05,2.29,1.82,3.38,.75,1.09,1.69,2.22,2.3,3.7-1.6-2.21-2.8-3.14-3.64-3.95-.87-.81-1.35-1.5-1.94-3.15-.55,.47-.95,.78-1.36,1.51-.1,.18-.21,.39-.33,.63l-.19,.4c-.04,.08-.04,.14-.06,.21-.02,.04,.02,.07-.06,.12l-.25,.16c-1.35,.87-2.88,1.97-4.72,3.45,1.37,1.72,2.56,2.32,2.42,4.06-1.27,1.13-3.83-1.17-4.21-3.48l.28-.58c-.95,1.15-2.02,1.96-3.21,2.42-1.19,.47-2.5,.61-3.89,.63-1.39,0-2.87-.19-4.4-.46-1.53-.23-3.1-.54-4.68-.82-1.58-.3-3.15-.5-4.65-.57-1.5-.07-2.95-.04-4.24,.27-2.58,.68-4.61,2.15-5.32,5.39l.19-.66c-1.78,2.92-3.46,5.72-4.95,8.72-1.87,.62-1.86-.45-1.85-1.84,0-1.38,.04-3.09-2.03-3.62-.51,1.49-1.08,2.67-1.7,3.7-.61,1.05-1.28,1.89-1.99,2.58-.71,.7-1.47,1.25-2.26,1.72-.79,.48-1.57,.95-2.38,1.36-1.6,.86-3.26,1.56-4.62,2.76-1.35,1.21-2.48,2.79-3.02,5.1-3.59-1.56-6.4-1.11-8.76,.3-1.2,.68-2.2,1.72-3.12,2.9-.92,1.17-1.76,2.48-2.55,3.82-.78,1.36-1.43,2.84-2.16,4.22-.7,1.4-1.51,2.7-2.28,3.95-1.54,2.52-3.59,4.48-6.68,5.5l3.24,1.07c1.99,3.55-2.91,1.64-4.37,2.94,2.5,.85,3.81-.99,4.87,1.08-.53,2.38-1.3,4.65-1.91,6.94-.34,1.14-.72,2.27-1.12,3.39-.41,1.12-.86,2.23-1.21,3.35-.77,2.24-1.65,4.47-2.61,6.72-.8,2.24-1.67,4.5-2.6,6.79l-.7,1.73-.59,1.72-1.21,3.47-1.22,3.52c-.38,1.18-.67,2.33-1,3.51-.63,2.35-1.25,4.72-1.76,7.13-.41,2.43-.81,4.86-.94,7.37-.15,3.65,4.42,4.19,8,4.87,1.81,.35,3.36,.75,4.12,1.67,.76,.92,.6,2.31-.93,4.84-2.24-.37-4.42-.79-6.64-1.26,2.49,3.25,4.29,6.57,5.73,10,1.53,3.42,2.7,6.97,4.18,10.48,1.42,3.52,3.12,6.98,5.34,10.08,2.22,3.09,5.04,5.76,8.52,7.55-1.65,.24-3.15,1.39-4.03,.22-.41,1.31-.18,2.6,.5,3.68,.69,1.07,1.76,1.99,2.98,2.61,2.47,1.23,5.36,1.29,6.69-.04,1.29,1.85-1.99,2.76-2.28,5.11,.22,2.1,2.73,2.34,4.85,2.56,2.15,.17,3.93,.36,3.19,2.64-.23,.75-1.6,.65-2.26,.55,1.48-.21,3.26,1.29,4.89,2.17,1.65,.85,3.08,1.07,3.78-1.63,1.46,2.5,3.92,3.33,6.17,4.04,2.27,.71,4.33,1.32,5.44,3.6,2.47-2.03,4.03-.55,5.6,.6,1.56,1.11,3.08,1.85,4.97-1.89-1.77,3.91-.4,6.36,1.98,7.36,2.38,1.03,5.66,.56,7.65-.96-1.72,2.21,1.75,3.32-.38,6.44,3.45,.87,6.9,.04,7.35-4.39,1.81,5.73,5.45,4.38,8.42,3.19,3.02-1.19,5.46-2.17,6.24,4.6,10.5-3.19,19.28-5.84,27.65-7.83-.15,4.28-2.52,4.5-4.8,4.7-2.28,.21-4.5,.42-4.53,4.93,4.25-1.58,7.52-4.26,10.68-6.29,3.17-2.04,6.19-3.44,10.26-2.64,2.18,1.03-.96,3.79-1.62,5.28,2.33-1.13,4.54-1.64,7.04-2.01l.17-.04,.17-.03c2.84-.25,5.38-.33,7.86-.81,2.46-.48,4.8-1.37,6.9-3.28,.1,.79-.52,1.77-1.15,2.53,1.35-.5,3.45,.73,2.66-3.09l-1.18,1.26c-1.54-2.62-.61-5.75,.57-8.59,1.18-2.87,2.63-5.44,2.47-6.93-.22,11.42,7.12,1.46,6.3,16,.77-.89,1.53-2.94,.78-5.45,1.47,.46,2.24,1.85,1.49,5.05,4.5-3.15,1.8-6.8,6.17-7.77,.45,1.84-.26,2.76-.19,5.02,1.4-4.11,2.6-8.24,6.65-7.73,.1,1.16,.93,2.45-.17,2.75,1.54-.61,2.81-1.7,3.95-2.97,1.14-1.27,2.13-2.79,3.16-4.14,1.04-1.35,2.09-2.63,3.38-3.51,1.29-.87,2.81-1.32,4.77-1.19,1.09,8.41,3.26,1.58,6.4,7.96,.98-1.14,1.92-2.4,2.85-3.58l-2.87-2.48c1.6-.67,2.56-2.46,3.52-4.03,.96-1.59,1.93-2.88,3.78-2.52-.3,1.25-.61,2.5-.95,3.76l2.59-2.07c.85-.71,1.69-1.46,2.53-2.19-1.52-.19-2.99-.33-4.48-.59,.66-2.4-.53-4.36-1.22-5.72-.7-1.37-.96-2.18,1.38-2.38-.2,.53,.51,.15,1.72-.02,1.22-.14,2.89-.22,4.75,1.09,0,0,0,0,0,.02,.21-2.81,.23-5.61,3.19-5.61,1.85,1.47,4.13,6.69,5.35,7.67-.5-1.46-.41-2.57,0-3.51,.2-.47,.47-.9,.79-1.31,.3-.43,.64-.85,.97-1.27,1.33-1.7,2.72-3.41,1.38-6.5,.48,1.58,2.87,4.43,3.55,4.83-.69-1.54-1.41-3.07-2.14-4.58,2.19,.07,2.9,.43,4.73,2.78,2.15-1.4,.28-2.73-1.23-3.89-.75-.58-1.41-1.12-1.47-1.57-.05-.46,.52-.79,2.16-1.17-.03,.6,.64,.94,.51,2.15,1.36-.71,2.39-1.73,3.24-2.87,.42-.58,.82-1.16,1.14-1.81,.32-.65,.62-1.31,.91-1.96,.58-1.31,1.16-2.57,1.88-3.71,.67-1.18,1.51-2.21,2.76-3,6.91,2.52-1.27,5.02,4.74,6.87,.47-.98,.86-2.01,1.19-3.08,.32-1.07,.63-2.15,.77-3.32,.32-2.31,.54-4.62,.67-6.88,.07-2.29,.16-4.47,.53-6.47,.24-2.04,.71-3.91,1.72-5.59l-1.2,1.1c-2.31-1.03-3.07-1.75-2.95-2.35,.13-.59,1.12-1.08,2.21-1.66,2.24-1.11,5.26-2.68,3.37-5.02,.52,1.04,5.19,2.35,4.16,1.86,.36-.62,.63-1.27,.75-1.94,.07-.34,.12-.68,.16-1.03l.05-.6,.03-.69c.06-1.85-.11-3.82-.5-5.59-.03-.46-.36-.92-.57-1.38-.24-.45-.48-.92-.72-1.38-.5-.92-1.01-1.86-1.57-2.79-.29-.47-.58-.94-.87-1.43-.15-.23-.3-.49-.45-.7l-.43-.6c-.55-.81-1.2-1.62-1.79-2.46l2.75,.36c.39-.88,.54-1.84,.56-2.85-.02-1-.18-2.04-.38-3.08-.18-1.05-.5-2.06-.71-3.06-.21-1-.39-1.96-.44-2.87-2.79-.03-3.08-1.91-6.14,.57,1.26-1.84,1.86-3.5,2.09-5,.21-1.49-.05-2.79-.55-3.95-.52-1.15-1.35-2.12-2.28-2.99-.96-.86-2.07-1.58-3.17-2.28-1.12-.68-2.27-1.3-3.29-1.97-1.04-.65-1.99-1.34-2.71-2.18-.74-.82-1.29-1.78-1.53-3.01-.25-1.22-.23-2.68,.18-4.56,.72,.78,3.41,.48,2.84-.18-1.16-.74-2.31-1.45-3.49-2.12-1.16-.68-2.34-1.32-3.53-1.92-2.68,3.54-1.15,2.58-2.56,6.05-2.52,1.14-5.28,1.2-6.5,.06,2.12-.02,3.35-1.23,4.12-2.88,.76-1.62,1.02-3.63,1.31-5.04-.73,1.15-2.09,1.92-2.93,3.01,1.23-4.17-.42-2.63-2.3-.94-1.93,1.69-4.07,3.53-4.29-.03l1.66-1.62c-2.21-.31-5.4,1.1-6.56-.59,1.17-2.29,1.92-2.48,2.71-2.5,.78,0,1.59,.16,2.92-1.46-1.25-.79-3.85,.31-5.94,.94-2.11,.63-3.75,.81-3.4-2,1.77-.52,3.22,.43,5.02,0,.57-3.26,.5-4.63,.18-5.44-.32-.82-.93-1.04-1.59-2.03l.11,.23c-.91-1.68-1.88-3.33-2.87-4.98l.27,2.06c-5.03,4.67-6.83,4.34-8.56,3.4-1.7-.91-3.37-2.41-7.4,.42,3.87-2.65,4.63-3.56,4.72-4.52,.1-.94-.43-1.87,1.04-4.34-.39-1.99-1.36-4.47-.15-5.67-2.09,1.54-2.58,.32-3.32-.75-.73-1.07-1.74-1.92-4.63,.5,.61-1.75-2.23-1.16,.09-5.23-3.43,.12-.58,3.26-1.76,5.28-3.38,1.98-5.11-.78-7.33-3.39-2.2-2.57-4.91-4.96-9.43-1.88-6.53,1.65-9.28,7.36-14.9,9.01-.42-1.65,.35-3.19,1.24-4.31,.89-1.13,1.9-1.82,1.9-1.82-1.96-3.37-4.19-3.45-7.24-2.01,.9-1.44,.7-2.9,.4-5.12-2.22-.02-2.94,6.22-5.04,2.95,.92-1.91,2.26-5,3.75-6.77-2.9,1.07-6.08,3.92-8.94,5.05-.05-3.3,2.51-4.49,3.87-6.35-3.23,.78-8.16,1.37-9.91,6.26l1.5,2.12c-1.08,.06,.25-4.42,1.2-5.19,3.24-3.47,3.24,2.43,2.99,4.28l-2.03,.81c-.11,5.52,1.7,5.43,4.05,4.17,2.34-1.26,5.24-3.66,6.97-2.93l-3.3,7.34c1.69-1.85,3.41-3.69,5.15-5.5,.28,2.19-.3,6.59-2.29,7.32,1.5,4.4,2.9-2.17,3.91,2.6,.06,.72-.15,1.06-.44,1.3l3.01-1.62c-.91,1.47-1.11,5.48-2.25,3.98,1.49,2.77,3.55,1.84,5.3,1,1.73-.83,3.13-1.58,3,1.53l-.49,.35c3.28-.35,3.89-1.66,4.47-3.54,.59-1.88,1.12-4.32,4.5-6.77-.54,4.86-1.16,9.71-1.84,14.53l2.55-5.24c.52,.42,1.54,1.26,.5,3.35,3.6-2.87,.52-2.51,3.14-5.52,.5,3.02,2.66,3.22,4.4,3.81,1.72,.6,2.98,1.55,1.39,5.92,2.8-3.58-1.29-4.31,2.95-5.77-1.61,4.73-.6,4.7,.92,4.21,1.51-.51,3.58-1.48,3.81,1.19-3.06,4.21-4.1,.66-3.73,5.96,2.64-3.54,3.65-2.5,4.24-.66,.62,1.83,.77,4.49,2.14,4.29,1.74-2.98,3.17-2.99,4.71-2.25,.76,.38,1.55,.95,2.42,1.42,.86,.49,1.81,.89,2.93,.94-.75,.91,.23,2.67,1.44,4.75,1.24,2.06,2.66,4.47,3.12,6.47l-.82,.83c4.96-4.99,6.83-1.62,9.68-.85-2.98,2.92-4.46,3.78-6.68,4.27,.55,.5,1.12,1,1.64,1.52,1.93-1.21,3.32-1.57,4.92-.99l-4.16,3.18c.54,.48,1.35,.72,2.26,.91,.88,.21,1.88,.36,2.82,.63,.92,.27,1.76,.68,2.37,1.32,.59,.65,.89,1.58,.75,2.84,2.05-1.31,4.34-3.92,6.71-6.07,2.37-2.12,4.91-3.8,7.69-2.62-2.06,1.65-5.7,4.3-7.24,3.94,.49,.12,2.59-.07,2.11,1.22-1.58,.3-3.13,.64-4.66,1-.57,2.63,3.61-1.27,4.14,.27-3.17,2.01-1.67,2.39-4.31,3.79-.49-.11,.65-1.91-.91-1.56,.19,.85,.02,2.01-.43,3.16-.45,1.15-1.24,2.31-2.34,3.27,1.79-1.17,4.38-2.52,5.38-1.72,.87,1.27-.07,2.04-1.27,2.75-1.21,.72-2.73,1.44-3.24,2.57,2.68-.53,.89,2.2,6.07,.03,.34,.81-2.05,1.97-3.34,2.82,.7,.1,1.25,.54,1.77,1.08,.49,.55,.91,1.21,1.42,1.75,1.01,1.07,2.25,1.77,4.88,.07l.26-.51c.13,.04,.16,.13,.31,.19h0c.85,.44,1.5,.98,1.98,1.57,.46,.6,.73,1.26,.9,1.95,.17,.69,.2,1.41,.13,2.15-.08,.7-.24,1.28-.42,1.94-.21,.64-.46,1.26-.68,1.85-.12,.3-.2,.59-.32,.87-.17,.28-.33,.56-.47,.84-.28,.55-.48,1.01-.55,1.51-.04,.25-.04,.5-.01,.76,.02,.33,.08,.68,.18,1.03l-1.84-.35c.46,.86,.53,1.7,.63,2.56,.06,.87,.12,1.74,.18,2.59,.04,.43,.1,.86,.18,1.29,.05,.42,.13,.84,.26,1.26,.26,.85,.71,1.7,1.47,2.59-.33,.95-3.93,.94-5.89-.25,.26,1.32,.75,2.23,.74,3.08-.05,.83-.59,1.64-2.74,2.41-.43-.87-.88-1.34-1.23-1.6-.34-.26-.59-.3-.72-.32-.26-.03-.06,.06,.77-1.22-.66,.48-1.31,.79-1.91,1.05-.63,.24-1.16,.44-1.51,.74-.71,.61-.61,1.6,.8,4.27-1.75-1.69-3.35-2.03-4.4-1.79-1.06,.25-1.58,1.12-1.35,2.06,1.28,.15,2.58,.27,3.91,.35-.27,1.64-1.32,2.56-2.54,3.33-1.51-1.48-3.04-2.94-4.59-4.37-2.37-.16-3.13,.65-3.4,1.97-.31,1.29-.01,3.13,.13,4.92,.17,3.43-.38,6.74-6.19,3.07,.81,2.19,1.89,2.31,3.09,2.46,1.19,.16,2.52,.33,3.63,2.75-1.41,.59-4.11-.41-6.43-1.58-2.38-1.2-4.43-2.55-4.75-2.32-1.22-.2-1.64,.29-1.71,1.14-.09,.84,.2,2.06,.49,3.33,.57,2.51,1.15,5.29-1.26,5.3,1.58,1.69,5.22,6.54,3.28,10.09-.8,.21-1.69-.08-2.56-.68-.88-.62-1.73-1.55-2.45-2.58-1.44-2.06-2.37-4.51-1.98-5.72,.51-.51,1.14-.04,1.48,.64,.43-1.19,.98-2.61-1.19-4.19l.79,2.15c-2.3-1.26-5.68,.63-6.52-3.07-.88,2.87,.82,3.74,2.79,4.05-1.19-.31-2.09-.32-2.85-.15-.78,.14-1.43,.46-2.06,.81-.63,.35-1.26,.73-1.99,1-.74,.25-1.62,.37-2.7,.22,1.02,.92,2.58,3.15,2,3.36-1.59-.1-2.42,.15-2.84,.63-.43,.46-.44,1.16-.36,1.95,.16,1.58,.71,3.53-1.03,4.7-3.3-2.46-1.96-7.97-4.78-3.99-3.02-1.45-2.33-5.53-2.07-7.55-.93,2.61-2.73,2.45-4.49,1.54-1.76-.88-3.47-2.46-4.52-2.61,.41-.74,.83-1.47,1.22-2.22-.71,1.33-1.58,1.52-2.44,1.74l2.18,4.09c-1.25-.48-2.12-.26-2.58-2.08-.35,3.15,2.76,7.04,1.53,11.52-1.02-.93-1.98-.06-2.95,.33-.97,.39-1.94,.27-2.83-2.59,2.53,.49,2.05-.97,1.42-2.74-.64-1.78-1.42-3.9,.31-4.82-.55,.86-1.43,1.07-2.66,.51-.3-.62-.12-1.24,.09-1.64-5.3-4.32-.46,7.06-5.05,7.82-.06-3.42-2.2-6.1-2.78-5.27,1.78-.24,1.89,5.38,.61,8.23-3.37-2.09-2.91,2.46-4.53,2.39l1.97,.95c-.1,3.44-1.7,3.22-3.7,4.56-.52-2.57,1.69-2.06,.78-3.1-.78,3.11-2.34,1.75-3.96,.15-1.63-1.61-3.3-3.47-4.62-1.37-.2-.28-.36-.6-.47-.93-1.03-1.57-.72-3.71-1.22-5.24-.17-.56-.47-1.03-1.01-1.36-.05-.05-.06-.1-.1-.14-.56,1.15-1.21,1.47-1.75,1.33-.55-.13-1.05-.7-1.55-1.29-1.01-1.19-1.99-2.48-3.71-.61,1.19,4.49,1.41,3.38-1.11,7.88,2.05-1.12,4.05-2.28,5.93-3.47-1.1,2.28-2.31,4.55-3.57,6.79,1.93-.01,3.83-3.06,4.95-2.37-1.57,3.83-1.53,2.68-.33,6.38-1.56-3.3-2.75-2.24-4.08-.91-1.31,1.33-2.75,2.91-4.35,.64l-.1-11.23c-2.21-2.46-4.08-1.03-6.25,.64-2.14,1.66-4.58,3.56-7.38,1.95l1.74,2.07c-1.05,4.41-3.66,.4-5.69,2.02,.51-3.73-.53-5.18-1.06-7.59-.22,2.79-4.01-.7-5.54,6.63-.64-1.75-1.25-3.5-1.82-5.26-2.07-1.35-3.77,1.05-5.59,3.52-1.8,2.47-3.73,5-5.85,3.84,2.25-3.67,.91-6.69,4.37-8.91-1.4-.33-2.46-1.31-3.1,1.22-.14-1.23-1.38-.26-2.71,.56-1.31,.79-2.69,1.41-2.82-.49-1.04,1.4-2.39,5.11-3.92,4.3,.06-.78,.58-1.76,.58-1.76-.55,1.77-3.32,1.56-3.21,5.97-.44-6.32-3.36-7.17-6.39-8.06-2.98-.85-6.07-1.81-5.15-7.09-3.2-.38-6.91-1.47-9.21-2.99,.84-.76,1.18-1.45,1.33-.83-.16-1.26-.76-1.44-1.62-1.13-.84,.3-1.94,1.1-3.07,1.87-1.12,.77-2.27,1.5-3.2,1.66-.91,.15-1.6-.31-1.76-1.81,1.36-2.98,2.38-3.07,3.09-2.85,.74,.23,1.2,.85,1.52-.45,2.05-2.31,2.8-3.58,2.83-4.3,.05-.73-.64-.93-1.52-1.08-.86-.16-1.88-.31-2.48-.82-.56-.53-.66-1.44,.4-3.01l.95,.03c.53-1,.43-1.53-.07-1.86-.49-.32-1.44-.4-2.43-.53-2.03-.22-4.58-.59-4.97-2.3,0,0,1.04-.36,1.66-.84-1.64,.23-3.15,.19-4.5-.08-1.32-.29-2.56-.76-3.63-1.39-2.15-1.26-3.78-3.04-5.15-4.63,4.94-.23,2.95,.82,7.41-1.24-.56-.61-2.4,.04-4.4,.55-1.99,.5-4.12,.83-5.26-.7,2.26-1.79,4-4.65,9.08-5.93l.9,2.71c3.13-1.53,2.9-2.31,1.95-3.02-.9-.72-2.5-1.39-2.06-2.22l2.95-.3c-.43-.97-1.13-1.69-2.06-2.26-.92-.57-1.99-1.03-2.98-1.53-1.01-.5-1.97-1.04-2.68-1.78-.71-.74-1.09-1.7-1.03-3l-2.21,.63c-3.79-1.3-2.72-2.02-1.44-2.65,1.28-.65,2.8-1.22,.07-2.71,2.5-.26,5.01-.5,7.51-.72-.48-.47-1.14-1.12-1.91-1.87-.79-.78-1.55-1.65-2.37-2.63-.8-.97-1.58-2.01-2.23-3.05-.66-1.04-1.18-2.08-1.35-2.98,2.53,1.36,4.55,3.07,6.22,4.7,1.71,1.64,3.03,3.18,4.68,4.37,0-.87,.08-2.26-.44-3.65-.49-1.38-1.46-2.75-3.25-3.45,.65,.81,2.41,1.88,1.2,2.45-2.84-1.36-4.96-2.94-6.08-4.63-1.16-1.7-1.59-3.57-1.14-5.42,7.02,1.84,8.5-.08,9.61-2.39,.25-.59,.62-1.15,.99-1.7,.38-.54,.81-1.05,1.38-1.46,.57-.41,1.26-.71,2.16-.83,.91-.12,2.08-.02,3.48,.3-.67-1.67-.66-3.16-.08-4.34,.64-1.16,1.64-2.12,2.8-2.96,1.27-.77,2.58-1.48,3.78-2.26,.65-.36,1.25-.76,1.78-1.22,.55-.45,.94-1.03,1.41-1.6-9.92-6.03,1.01-1.49-7.63-9.27,.66-1.74,1.24-2.1,1.88-1.65,2.91,.55,5.6,1.16,8.28,1.97,1.51,.98,1.61,1.7,1.59,2.4-.03,.7-.13,1.44,.76,2.38,.69-.36,1.36-.3,1.93-.05,.58,.25,1.11,.71,1.65,1.25,1.08,1.07,2.24,2.43,3.88,3.1-2.82-3.05-2.81-5.44-.41-5.08-1.68-1.02-3.44-2.03-5.16-2.91-.06-1.96,.63-2.53,1.46-2.48,.86,.06,1.95,.79,3.01,1.55,1.05,.74,2.11,1.53,2.95,1.67,.83,.13,1.41-.38,1.62-2.29,.19,1.31,.4,2.6,.64,3.88,.21-.73,.71-1.4,1.43-2.04,.72-.64,1.55-1.31,2.3-2.21,1.58-1.7,2.81-4.27,2.26-9.03,.95,1.06,2.67,3.79,1.98,4.98,1.5-.23,2.76-1.24,4.06-2.5,1.25-1.3,2.52-2.85,3.83-4.28,1.3-1.45,2.72-2.64,4.15-3.3,1.46-.6,2.98-.59,4.51,.52l.16,2.88c.48-.54,.7-1.94,1.07-2.91,.18-.49,.4-.86,.71-.96,.05-.01,.06-.02,.14-.03,.08-.01,.17-.02,.25-.02,.17,0,.35,0,.54,.04,.38,.07,.75,.25,1.21,.53,.15,1.17-.29,2.94,.87,2.89,.52-.62,1.83-2.04,3.31-3.2,1.5-1.16,3.18-2.04,5.13-1.35-.43,1.12-.96,2.16-1.47,3.35,1.78,.21,3.51,.36,5.02,.24,1.48-.16,3.08-.07,3.62-1.45,.75-1.07,1.39-2.21,1.94-3.36,.13-.29,.26-.58,.4-.86l.31-.8c.2-.53,.38-1.06,.56-1.59,1.43-4.3,1.87-7.67,4.17-9.39,1.46,1.38,3.11,2.22,4.77,2.54,.44,.1,.87,.17,1.3,.21l.64,.04c.21,0,.41-.12,.61-.19,.81-.33,1.65-.75,2.47-1.23,1.64-.94,3.22-2.06,4.43-2.89l.78,.63c3-2.97,4.94-6.09,5.82-9.24-1.28-4.91-3-9.48-4.69-13.73-.81-2.03-1.62-4.09-2.46-6.2-.39-1.01-.76-2-1.1-2.99l-.5-1.49-.23-.74c-.08-.26-.15-.34-.22-.53,8.96-5.1,3.43-16.66,8.33-24.64-1.49,1.24-6.52-.05-7.39-1.43,1.66-1.88-5.92-4.97,1.76-4.85l-.13,.66c7.49-1.56,5.41-5.31,5.54-8.27l-10.04-.26c14.41-8.08-5.82-20.17,7.15-24.7-2.55-1.81-2.57-4.13-5.12-5.92l5.38-.02c1.26-5.21,1.87-7.81,.44-14.18l3.87,1.22c.27-3.62-15.61-4.21-16-7.53l8-1.18c-.27-6.3,6.64-12.83-.79-18.89,1.18,.08,3.5,.21,3.85,1.22,.14-2.97,5.17-11.59-5.82-10.27,7.17-.24,.55-6.51-2.69-9.85l5.3,.41c-6.83-2.72-8.68-2.77-10.64-6.73,.67-.97,4.22-.93,2.89,.36,2.7-3.23-5.07-2.35-2.34-6.26l3.41,1.35c.33-3.27-1.47-2.97-5.46-4.67-2.17-2,1.2-6.21,5.97-6.8-2.93-.37-6.87-2.07-5.53-4.02,1.8-.3,2.94,.37,3.5,.71,3.48-5.53-6.34-7.96-1.22-11.82,1.75-.12,2.62-.38,3.14-.7-.03,4.33-.24,7.82-.63,7.5,4.88-.11,5.66-3.63,12.46-1-3.74-2.72-11.85-7.34-9.63-10.8,.47-.18,.93-.35,1.68-.49l.56,.34c.47-.8,0-1.49-.84-2.14,.78-1.11,1.36-1.81,1.41-2.86,4.03-.49,2.08-4.06,2.24-5.81-5.34,.27-4.53-2.04-8.89,.2,.37-.29,.64,.32,.89,1.47,.16,.26,.25,.57,.57,.73l-.47-.11c.18,1.14,.33,2.63,.46,4.32-2.74-1.32-5.06-2.7-2.14-4.7-3.45-.82-7-1.72-8.67-2.24,7.39-2.55,11.31-7.24,15.89-7.99-3.12-5.25-2.26-12.49-12.37-15.61-1.32-1.48,2.84-1.81,4.4-2.41,1.03,.85,.9,1.89,2.35,2.33-2.64-2.97-1.2-8.94-8.23-9.5,3.08-3.89,6.5,2,5.23-3.22l2.16,.66c10.97-10.56-18.27-16.35-4.15-28.11-.86,.81-1.26,1.22-2.43,1.41,6.04-13.17-6.56-26.72,3.2-39.8,1.94-3.7-2.54-3.99-6-6.15l5.72-.92-6.7-3.66c-4.97-5.3,13.86-9.68,4.54-16.32l-3.84,.97c.68-2.48-2.45-7.74,2-7.43-.71-.24-4.03-.72-2.04-1.72l3-.14-5.28-5.92c2.06-4.73,11.93,.46,12.36-6.38-1.21-2.51-8.9-7.03-10.89-6.03-.12,1.03-1.81,2.66-4.82,2.81l-1.62-2.29c-8.85-.22-17.95-1.8-24,4.04l5.5,3.85-4.26,1.38-.35-3.34c-3.99,1.99-.39,3.11,2.09,4.4-2.27,.37-3.86,.96-4.69,1.77l8.54,3.71c-3.45,.55-6.91-1.59-8.76,1.07,3.96,1.74,7.72-1.93,10.37,1.04-3.98,1.99-7.26,1.51-3.78,3.66-2.27,.37-3.73-.07-4.75-.94,2.78,1.92,1.27,5.23,6,6.15-4.92,2.09,1.44,6.68-6.93,6.67,2.02,.58,6.65,3.35,7.04,5.16-10.1-3.11-.43,6.84-11.2,6.2,9.07,2.26,4.2,8.82,9.3,13.07-.72-.23-2.18-.68-1.73-1.07-.69,2.48-3.39,3.25-5.06,4.87,7.45,.15,9.24,3.94,13.88,5.9-7.11,3.18-8.78-1.63-15.66-.53,6.03-.29,6.14,5.1,11.14,3.96-4.39,2.41-2.11,2.04-8.25,3.36,9.32,.19,1.63,2.11,7.38,3.89-4.51,3.44-8.7,1.06-5.78,4.66-2.81,1.81-6.19-1.38-6.19-1.38Zm18.07,86.78h-.11c-.14-.75-.27-1.38-.34-1.79,.08,.37,.2,.89,.45,1.79Zm.25,7.32c.19-.9,.2-2.01,.14-3.18,1.84-.3,3.74-.06,3.66,.68-1.24-.37-2.27,1.38-3.8,2.51Zm36.65-16.33c.78,1.14-.26,1.55-1.35,1.74-.11-.55-.3-1.18-.69-2.01-.2-.03-.43-.09-.66-.12,1.02,.09,1.98,.19,2.69,.4Z"/><path class="c" d="M792.11,325.54c-.12-.16-.35-.25-.4-.47-.46,.25-.86,.48-1.18,.72l1.68,.37c-.04-.21-.06-.43-.1-.62Z"/><path class="c" d="M891.61,608.56l-.08,.17c.17-.17,.35-.33,.65-.49-.22,.16-.38,.21-.57,.33Z"/><polygon class="c" points="754.59 445.16 755.94 445.12 754.74 444.51 754.59 445.16"/><path class="c" d="M884.7,565.14c.25-.4,.46-.88,.48-1.41-.21,.28-.35,.81-.48,1.41Z"/><path class="c" d="M870.18,552.47c-.41-1.02-.83-2.06-1.27-3.06,.44,1.53,.86,2.44,1.27,3.06Z"/><path class="c" d="M858.78,542.83c-.59,.75-.96,1.35-1.3,1.91,0,.02,.01,.02,0,.05l1.29-1.95Z"/><path class="c" d="M810.3,712.53c-.19,.06-.38,.15-.53,.32-1.19,1.21-.33,.68,.53-.32Z"/><path class="c" d="M871.09,678.5c-.09,1.21-.2,2.41-.55,3.34,1.26-.32,2.15-.76,.55-3.34Z"/><path class="c" d="M729.63,714.72s.01-.04,.03-.09c-.18-.03-.34-.09-.52-.14l.48,.23Z"/><path class="c" d="M867.7,683.37c1.6,.3,2.41-.39,2.84-1.54-1.05,.24-2.36,.32-2.84,1.54Z"/><path class="c" d="M800.33,521.09l-.64-.35c-.05,.35-.14,.62-.24,.83l.87-.48Z"/><path class="c" d="M799.46,521.57l-.87,.48c.35,.06,.65,.08,.87-.48Z"/><path class="c" d="M796.78,523.1l1.81-1.04c-.54-.11-1.19-.4-1.81,1.04Z"/><path class="c" d="M818.21,527.64l.71-1.82c-.22,.36-.45,.94-.71,1.82Z"/><path class="c" d="M823.89,528.64c-1.18-.8-2.21-4.93-4.4-4.25l-.57,1.44c1.65-2.55,2.85,5.59,4.97,2.81Z"/><path class="c" d="M837.44,558.72c-1.12-1.01-2.25-2.05-3.41-3.04-.04,2.2-.18,5.12-2.13,4.89,2.63,7.67,.68-4.73,5.55-1.85Z"/><path class="c" d="M847.97,566.99c-2.41-.18-1.36,2.67-2.02,3.64,2.09-1.03,2.64-1.27,2.02-3.64Z"/><path class="c" d="M885.83,632.49l-4.44-1.97c.07,1.52,1.74,.73,4.44,1.97Z"/><path class="c" d="M897.47,661.71c1.23,.07,2.48,.11,3.75,.13-.96-1.17-1.94-2.33-2.92-3.48l-.82,3.35Z"/><path class="c" d="M864.9,646l-.04-.91c-.15,.94-.3,1.9-.48,2.87l.52-1.96Z"/><path class="c" d="M727.94,663.92l-2.33,5.52c1.44-.48,4.56-6.44,2.33-5.52Z"/><path class="c" d="M695.81,621.85c1.49-.41,2.66-1.05,3.15-1.7,.5-.66,.25-1.33-1.21-1.87-.21,.7-.91,1.41-1.46,2.04-.52,.63-.88,1.18-.48,1.52Z"/><polygon class="c" points="803.02 463.53 805.06 464.96 803.32 462.22 803.02 463.53"/></g><g><path class="c" d="M593.33,201.77c-.73-.4-1.99-.84-3.02-1.05-1.03-.18-1.76-.36-1.52,.12l5.92,2.18c-.45-.48-.88-.98-1.39-1.25Z"/><path class="c" d="M580.81,203.75c2.75,1.66,7.8,3.76,13.57,4.35-5.74-2.11-3.23-1.77-10.02-4.35-.53-.98,2.29-.92,4.51-.23-1.5-.67,1.63-.81-2.08-2.23-4.97-.27-5.52,1.18-1.9,3.42-1.41,0-2.95-.64-4.07-.96Z"/><path class="c" d="M583.36,289.69l.35-.88c-.28,.34-.38,.63-.35,.88Z"/><path class="c" d="M620.22,332.83c-.45-.11-.94,.31-1.28,.77,.57-.12,1.06-.26,1.28-.77Z"/><path class="c" d="M625.04,343.93c-.09-.28-.2-.45-.3-.67-.09,.62-.06,1.01,.3,.67Z"/><path class="c" d="M583.36,289.69l-.94,2.32c1.82-.95,.92-1.45,.94-2.32Z"/><path class="c" d="M593.95,216.94c-.28-.29-.83-.57-1.56-.87,.24,.25,.44,.48,.59,.71l.98,.16Z"/><path class="c" d="M568.56,268.25l-.15-.46c-.72,.07-1.59,.19-2.56,.35l2.71,.11Z"/><path class="c" d="M563.35,248.95c-.17,.48,5.14-.11,7.47-.28-2.22,.07-3.29-.1-3.75-.43-1.01,.13-2.2,.35-3.72,.71Z"/><path class="c" d="M572.04,218.45l-.69-.59c.22,.16,.41,.4,.69,.59Z"/><path class="c" d="M572.52,282.17c-.71,.35-1.32,.71-1.67,.95,.61-.27,1.16-.6,1.67-.95Z"/><path class="c" d="M955.71,217.98c.38,.02,.62,0,.95,.01-.54-.09-.92-.12-.95-.01Z"/><path class="c" d="M980.71,197.63l.34,.25c1-.15,1.98-.29,2.96-.47l-3.3,.22Z"/><path class="c" d="M638.59,358.38c0-.07-.02-.08-.03-.13-.7,.35-.4,.37,.03,.13Z"/><path class="c" d="M797.3,377.91c-1.95-4.69,2.61-6.25-.25-11.43,.34,2.07-2.08,8.43,.25,11.43Z"/><path class="c" d="M593.21,217.26c.04,.22,.06,.43-.02,.64,.21-.27,.21-.47,.02-.64Z"/><path class="c" d="M797.05,366.48v-.05l-.29-.49,.29,.54Z"/><path class="c" d="M679.35,368.7c.14-.93,.16-1.67,.16-2.37-.12,.53-.19,1.21-.16,2.37Z"/><path class="c" d="M652.57,352.49l.45,.93c-.11-.56-.27-.79-.45-.93Z"/><path class="c" d="M696.15,364.63c.31,.48,.31,1.23,.97,.63,0-.28-.01-.47-.04-.67-.33,.68-.65,.97-.93,.05Z"/><path class="c" d="M711.81,367.21c-.03-.42-.09-.73-.14-1.1-.17,.08-.36,.14-.54,.22l.67,.89Z"/><path class="c" d="M951.26,255.26c1.51,.29,3.11,.72,4.69,1.17-3.62-1.18-4.26-3.35-4.69-1.17Z"/><path class="c" d="M590.97,216.59c1.33,.24,1.98,.43,2.24,.67-.04-.16-.13-.32-.23-.48-.78-.13-1.53-.23-2-.19Z"/><path class="c" d="M704.62,323.36l2.01,1.19c-.51-.62-1.24-1.04-2.01-1.19Z"/><path class="c" d="M887.78,316.46l.21-.78c-.22-.04-.32,.17-.21,.78Z"/><path class="c" d="M713.23,324.85c.1,1.92,.34,3.07,.67,3.85,.15-.4,.31-.72,.46-1.32l-1.13-2.53Z"/><path class="c" d="M956.01,256.45l-.05-.02,.05,.02Z"/><path class="c" d="M947.65,240.48c-.54,1.67,6.47,2.47,10.29,3.83,1.33,2.75-5.27-.28-8.93-.49,1.47,1.75,7.31,4.59,6.75,5.56-1.13-.26-1.59-.19-2.9-.85,2.46,1.53,2.15,2.63,2.03,3.8-.13,1.18-.15,2.4,2.82,4.5-.63-.09-1.2-.24-1.71-.39,3.38,.97,6.75,2.17,9.11,3.13-.2,.93,3.47,3.29-.92,1.94,.35-.5-1.36-1.22-2.59-1.99l1.49,1.64c-6.45-1.63-1.63-2.08-6.18-3.83,.66,1.22,2.05,2.86,2.99,4.29,.93,1.43,1.35,2.65,.21,2.94-6.01-2.36-.65-3.9-6.68-4.46,1.05-.31,2.06-.66,3.09-1.02-10.03-2.36,1.12-.89-9.51-3.64-1.33,.84-.87,1.79-.41,2.78,.45,.98,.93,2.02-.5,2.77,2.98,2.08,4.88,2.09,7.84,4.2,2.03,3.25-2.01,2.17-5.65,.95-3.66-1.19-6.93-2.48-3.82,.77,3.42,2.68,10.32,7.05,5.53,6.72l-5.93-4.33c-1.9,1.79,8.16,6.75,2.51,6.56-2.14-1.99-.93-3.07-1.88-3.2-5.8-1.6,2.85,3.3,2.03,4.5l-5.54-3.35c-.34,1.41,.03,3.42,.27,5.48,.12,1.04,.26,2.11,.26,3.11,0,1-.11,1.94-.38,2.76-1.38-1.35-2.63-3.03-4.61-3.71,.04,1.27-.35,2.27-1.02,3.05-.67,.78-1.55,1.38-2.67,1.75-1.1,.38-2.35,.61-3.64,.72-1.32,.09-2.69,.06-3.99,0,.97,1.65,1.92,3.33,2.85,5.02-.3,.19-2.18-1.42-2.66-2.45-2.51-.58,2.36,2.64,3.32,4.72-.38,.87-2.99-1.61-3.73-3.2,.33,1.3,.56,2.74,.63,4.15,.06,1.39-.09,2.71-.44,3.81-.69,2.21-2.44,3.33-5.35,1.82l-.57-1.65c-1.55-.25-.28,2.43,.67,4.79,.98,2.36,1.69,4.45-.68,2.95l-.24-1.04c-2.68,.48-4.5,2.4-6.6,3.7-2.17,1.19-4.58,1.75-8.28-1.05,1.66,3.67,.14,3.48-1.12,3.61-1.25,.14-2.29,.54,.12,5.59-2.57-1.82-3.86-3.28-5.18-4.48-1.32-1.21-2.62-2.1-5.18-3.01-1.14-.05,1.52,6.99,.77,8.62l-2.41-5.33c.3,2.11,.59,4.25,.83,6.35l-3.64-6.07-.54,1.85c.58,.14,1.98,2.02,2.58,3.61-.39,1.6-1.91,1.12-3.43-.12-1.52-1.23-3.06-3.24-3.63-4.64-.8,2.06-1.64,4.14-2.52,6.23-.71-2.25-.27-3.28-.23-4.9-.21,6.46-2.52-5.64-2.7,.28,.73,1.16,1.02,3.34,1.36,4.47-2.26-2.98-4.63-2.22-5.96-.19l-.9-3.95c-1.73,.05-3.3,.97-4.88,2.09-1.57,1.13-3.22,2.31-5.09,2.76,1.82,1.46,3.37,8.29,2.4,9.24l-2.04-5.86c.25,3.89,1.77,1.94,1.47,6.86-1.64-.3-2.72-6.56-2.44-8.71l-1.17,2.53c-.56-1.77-.4-2.82-.88-5.13,.24,3.94-4.39-5.31-3.81,1.41l-.52-1.77c-1.87,.41-3.09,1.24-4.25,2.08-1.17,.81-2.25,1.65-3.77,2.12,.99,5.25-.47,4.34-.6,8.77-2.69-1.21-6.03-4.93-8.75-3.99-1.56,2.97,.14,4.57-.27,7.85-.92-4.78-3.69-3.92-2.74-7.59-1.64,.64-2.7,1.04-3.81,1.84-1.12,.82-2.29,2.03-4.26,4.24,.72,1.92,1.38,2.71,1.3,4.4-.71,.89-2.09-1.81-2.26-4.14l.15-.52c-2.04,3.91-5.34,.77-8.37-2.19-3.05-2.93-5.79-5.49-7.36-.3l.18-.52-3.72,5.55c-1.95-.71,.89-3.73-.72-6.64-1.93,4.19-3.72,4.06-5.41,3.48-1.7-.56-3.29-1.46-5.01,1.32-1.72-7.1-4.15-6.73-6.76-5.8-2.59,.96-5.35,2.58-7.3-1.98l.26,3.38c-.96,3.32-1.22-1.93-1.95-2.71,.12,2.63,1.1,3.04,.5,4.88-4.2,2.02-8.59,.86-12.91-1.4-2.16-1.11-4.31-2.44-6.44-3.69-2.12-1.3-4.21-2.53-6.29-3.37-3.03-1.05-2.64,17.44-6.18,9.13l1.47-6.19c-3.33,3.55-6.59,3.31-9.76,2.86-3.17-.5-6.28-1.09-9.67,1.78,.51-1.4,.71-3.27,1.3-3.18-.82-4.68-4.69-.75-5.15,2.95-.9-.53,.16-3.37-.21-5.31-.95-2.82-3.93,5.44-4.04,.82-.02-.75,.54-1.42,.82-1.74-1.1,2.08-3.77-1.09-3.68,4.24-1.91-2.81-4.7,1.74-6.03-1.63-2.09,5.62-3.39-3.43-5.12,4.72,1.57-8.45-2.74-7.46-4.89-3.8,.95-2.46-.72-2.88,.5-6.31-1.6-.19-3.36,1.1-3.96,5.48-.47-5.31-2.31-3.6-3.99-2.23-1.67,1.38-3.16,2.42-2.48-4.18-5.67,3.42-10.85,5.3-15.64,5.98,2.56-8.18,4.88,.52,7.09-8.21-4.73,2.3-9.24,8.72-12.52,5.43-.64-1.44,1.73-3.34,2.5-4.64-2.46,1.06-4.29,.28-6.03-.43-1.75-.71-3.52-1.18-6.02,.29,.3-.74,.98-1.41,1.55-1.88-.75,0-1.05-1.77-2.41,1.87l1.03-.73c-.5,2.84-2.22,5.33-4.03,7.43-1.8,2.1-3.69,3.8-4.32,5.16,2.72-4.92,2.11-5.93,1.75-7.22-.37-1.29-.42-2.92,3.19-9.02-.7,.49-1.96,1.95-2.89,4.39-.34-.99,.08-2.46,1.89-4.9-3.11,.94-4,5.07-6.09,4.05,.8-1.71,1.53-2.18,2.66-4.11-2.58,2.91-5.23,5.69-6.31,3.38,.61-.97,1.06-2.4,1.56-2.12-1.6-.48-4.01,1.12-6.21,2.09-2.2,.99-4.32,1.51-5.08-.98,5-6.56,.25-2.99,3.68-9.2l-2.71,.85-1.11,3.34c-1.41-.94-5.45,2.58-5.47-.2l2.66-1.76-3.43-.62,.07,3.25c-3.52,2.08-4.76,7.61-5.73,4.63,.81-.3-1.49-1.16,.16-5.11,0,0,0,0,.02-.01-2.02,1.32-4.23,2.72-4.26,.48,1.09-2.02,4.92-6.11,5.65-7.45-2.1,2.12-3.16,1.82-4.27,1.54-1.12-.28-2.28-.54-4.7,1.53,1.23-.91,3.59-3.78,3.98-4.44l-3.61,3.25c.35-1.72,.75-2.36,2.76-4.55-1.26-2.22-5.23,7.36-4.95,2.52,.43-.14,.82-.75,1.67-1-.47-1.68-1.94-2.09-3.46-2.49-1.53-.39-2.94-.91-3.05-2.69,4.55-5.55,2.84,.38,6.47-4.51-.85-.4-1.99-.56-3.26-.64-1.24-.1-2.58-.14-3.89-.26-2.63-.2-4.9-.89-5.45-2.81l-.17,1.02c-4.09,2.98-3.6,1.61-2.61-.27,.97-1.88,2.43-4.21-.04-3.54,.89-.07,4.86-2.85,3.89-2.28-.08-1.44-1.23-2.09-3.06-2.55-1.8-.48-4.16-.84-6.54-1.68l2.46-.92c1.27-2.46-.79-3.97-.43-5.92-2.5,.8-2.56-.22-5.65,1.99,2.67-2.79,3.43-4.42,3.07-5.52-.38-1.09-1.77-1.69-3.27-2.3-1.51-.6-3.05-1.23-3.61-2.24-.57-1-.12-2.39,2.46-4.4,.19,.49,2.53,.42,2.4,.03-1.12-.88-2.29-1.76-3.38-2.72-4.12,1.56-2.41,1.24-5.43,3.04-2.63,.32-4.88-.2-5.17-1.18,3.31,.93,6.75-2.03,8.92-3.35-1.26,.48-2.76,.64-4.06,1.07,7.01-3.99-8.62,1.98-4.26-2.16l2.27-.41c-1.42-.72-4.58-1.03-4.2-2.32,4.86-1.54,2.56,.61,6.65-.26-.31-.72-2.83-.95-4.7-1.37-1.85-.41-3.04-1-.69-2.18,1.52,.42,1.72,1.37,3.23,1.75,5.55-2.69,4.05-2.52,4.77-3.79l-.11,.13c.71-.99,1.5-1.97,2.25-2.92l-1.5,.88c-6.68,.12-7.46-.85-7.62-1.93-.17-1.1,.2-2.29-4.23-3.24,8.42,1.79,4.77-.07,10.51-.44,1.53-.82,3.22-1.92,4.86-1.8-2.37-.36-1.51-.94-.89-1.52,.61-.59,.95-1.19-2.5-1.81,1.83-.18,.13-1.27,4.78-1.23-1.52-1.41-3.21,.5-5.53,.5-3.22-1.04-1.37-2.59,.25-4.13,.79-.78,1.54-1.56,1.54-2.37,0-.81-.75-1.65-2.88-2.58-3.47-3.12-9.66-4.09-12.53-7.41,1.53-.39,3.19-.03,4.47,.41,1.29,.44,2.2,.96,2.2,.96,2.85-1.37,2.45-2.53,.51-4.27,1.57,.48,2.97,.32,5.08,.12-.35-1.2-6.6-1.61-3.69-2.82,2.01,.55,5.24,1.32,7.22,2.12-1.52-1.52-4.76-3.34-6.17-5.04,3.24,.15,4.7,1.63,6.71,2.41-1.22-1.73-2.23-4.4-7.14-5.88l-1.99,.7c-.14-.64,4.37,.51,5.21,1.09,3.7,2.02-2.08,1.62-3.93,1.42l-1-1.23c-5.44-.4-5.21,.8-3.69,2.26,1.51,1.47,4.31,3.15,3.88,4.15-2.58-.6-5.17-1.22-7.74-1.86,2.07,1.03,4.17,2.03,6.25,2.99-2.1,.23-6.53,.13-7.58-1.11-4.07,1.21,2.65,1.69-1.82,2.67-.69,.09-1.06,0-1.36-.18,.73,.61,1.47,1.2,2.22,1.79-1.63-.44-5.58-.16-4.37-1.08-2.38,1.29-1,2.62,.26,3.63,1.25,1.03,2.33,1.77-.68,2.2l-.48-.27c1.27,2.1,2.72,2.22,4.69,2.25,1.97,.01,4.45-.03,7.83,1.43-4.78,.55-9.55,1.17-14.33,1.86l5.8,.4c-.22,.41-.63,1.23-2.95,1.1,4,1.49,2.52-.28,6.28,.55-2.63,1.01-1.98,2.37-1.8,3.51,.17,1.15-.15,2.13-4.74,2.64,4.45,.43,3.27-2.08,6.47-.18-4.94,.61-4.47,1.22-3.32,1.89,1.14,.69,3,1.41,.81,2.52-5.16-.05-2.63-2.11-7.01,.2,4.38,.17,3.98,1.08,2.74,2.2-1.22,1.11-3.3,2.44-2.38,3.13,3.42-.42,4.24,.32,4.57,1.45,.32,1.13,.12,2.68,1.51,3.75-1.15,.13-1.87,1.52-2.49,3.28-.6,1.75-1.16,3.88-2.03,5.43l-1.14,.21c6.89-1.22,6.23,1.55,8.17,2.91-4.03,1.12-5.7,1.27-7.79,.77l.55,1.76c2.27-.23,3.53-.03,4.66,.82l-5.11,1.15c.53,1.13,2.38,1.83,3.8,2.71,1.44,.88,2.49,1.92,1.41,4.02,2.29-.82,5.23-2.62,8.13-3.96,2.9-1.35,5.73-2.25,7.75-1.55-2.39,1.07-6.53,2.88-7.82,2.53,.4,.13,2.38,.04,1.54,.94-1.52,.19-3.05,.37-4.58,.53-1.28,1.99,3.7-.74,3.72,.39-3.47,1.43-2.16,1.77-4.96,2.79-.45-.12,1.05-1.48-.47-1.31-.14,1.4-1.59,3.69-3.97,5.33,1.91-.97,4.61-2.04,5.44-1.42,1.26,2.03-3.75,2.63-4.88,4.77,2.6-.59,.87,2.03,5.91-.46,.3,.63-1.97,1.94-3.2,2.88,1.4,0,2.23,1.24,3.32,1.93,1.11,.7,2.4,.85,4.65-1.22l.19-.46c.13,0,.17,.05,.31,.05h0c1.7,.17,2.62,.76,3.12,1.62,.52,.84,.64,1.95,.68,3.13,.04,2.37-.01,4.95,2.07,5.88l-1.52,1.09c1.56,.34,2.63,1.18,3.8,1.82,1.16,.64,2.5,1.02,4.59,.36,.42,.51-1.61,3.43-3.5,4.64,1.12,.25,2.11,.06,2.73,.31,.64,.24,.91,.9,.65,2.91-3.67,.83-1.72,2.42-3.06,.2,.4,2.82-1.39,5.41,4.12,3.71-4.1,2.69-3.02,5.55-1.17,5.37,.4-1.23,.8-2.45,1.22-3.65,1.41,.41,1.88,1.53,2.43,2.61l-4.84,4.12c-.75,4.54,3.26,3.85,6.58,3.23,3.38-.61,5.98-.91,3.51,5.29,3.78-2.64-.19-4.12,3.99-7.4,.59,1.03-.05,3.65-.73,6.14-.68,2.48-1.41,4.79-1.12,5.02,.25,2.41,2.27,.95,4.3-.59,2.05-1.55,4.14-3.24,4.77-1.32,.93-2.11,4.07-7.21,7.11-7.74,1.26,1.81-2.94,9.36-5.13,10.1-.56-.14-.38-.88,.06-1.5-1.06,.29-2.41,.56-3.02,3.09l1.5-1.71c-.34,2.53,2.47,4.05-.15,6.77,2.64-.86,2.6-2.73,2.16-4.4,.72,4.39,3.83,2.47,5.3,5.91,.2-1.32,1.16-3.83,1.55-3.57,1.18,2.33,2.15,1.6,3.15,.4,1.01-1.21,2.1-2.91,3.58-2.67-.2,3.8-4.41,6.95-.46,5.8,.52,2.92-2.4,5.5-3.93,6.76,2.24-1.24,3.05-.06,3.49,1.66,.43,1.72,.47,3.97,1.03,4.69l-2.14,.98c1.29-.57,1.93-.22,2.6,.12l1.18-4.45c.43,1.09,1.09,1.43,.28,3.12,2.05-2.3,2.59-7.05,5.83-10.02,.06,2.53,4.02-.9,1.96,4.73-2.38-3.28-2.07,5.66-5.23,5.31,.84-.41,1.47-.09,1.94,.98-.15,.66-.61,1.08-.97,1.3,1.07,6.3,4.17-5.5,7.32-4.07-1.71,2.95-1.68,6.22-.86,5.77-1.31-.6,1.52-5.45,3.65-7.38,1.08,3.26,2.94-.93,3.88-.22l-.76-1.63c1.63-2.98,2.46-2.16,4.23-2.66-.8,2.5-1.91,1.23-1.81,2.5,1.83-2.49,2.15-.74,2.51,1.28,.35,2.02,.75,4.3,2.51,2.82,.28,2.53-1.97,6.04-1.54,7.81,3.94-3.32,1.34,5.3,5.18,2.74,.58-4.58,.14-3.55,3.31-7.17l-5.31,1.63c1.62-1.78,3.22-3.57,4.8-5.37-1.25-.47-3.6,1.83-4.13,.85,2.48-3.08,1.97-2.06,2.55-5.83-.21,3.51,.98,2.85,2.26,1.93,1.28-.92,2.64-2.09,2.97,.41l-3.33,10.72c.86,2.85,2.7,1.88,4.69,.67,1.99-1.21,4.12-2.64,5.79-.78l-.8-2.22c1.69-4.17,2.65,.03,4.4-1.39-1.04,3.61-.55,5.14-.54,7.55,.59-2.72,2.96,1.02,5.04-6.22l.7,5.22c2.9,2.7,6.02-9.56,8.82-7.72-1.75,3.81-.85,6.7-3.56,9.14,1.05,.25,1.88,1.1,2.4-1.44,.17,2.42,3.89-4.4,4.18-.71,.75-1.53,1.61-5.37,2.71-4.84,0,.77-.34,1.83-.34,1.83,.34-1.82,2.26-2.14,1.99-6.42,.54,6.04,2.85,6.19,5.09,6.14,1.12-.03,2.24-.11,3.16,.47,.92,.55,1.64,1.76,1.98,4.34,2.47-.93,5.37-1.74,7.47-1.74-.27,1.1-.24,1.86-.58,1.42,2.45,3.79,3.04-10.49,5.78-6.27,.98,6.21-2.08,3.07-1.31,5.46-.47,6.16,.58,5.85,1.9,4.93,1.33-.93,2.91-2.45,3.66,1.23l-.61,.68c1.3,4.32,4.57-4.29,7.22-3.18,0,0-.22,1.08-.17,1.86,1.2-3.06,2.72-5.02,4.27-6.43,1.55-1.43,3.14-2.29,4.49-3.08-1.12,4.77-1.35,2.47-1.18,7.4,1.22-.62,.19-7.89,2.59-9.11,.58,2.69,2.13,5.1,2.06,10.34l-2.24,.14c.74,6.84,2.91-.05,4.01,1.2l-.31,2.95c3.49-.81,3.88-8.27,7.48-7.58l-.29-2.25c2.25-7.31,1.51,4.22,3.68-1.19l.36,7.52c1.39-1.78,4.8-7.15,7.15-8.52-1.42,5.53-4.25,8.32-6.07,11.59,1.31,.08,4.49-.46,5.24-4.15-.54,.71-1.24,2.54-1.74,1.37,1.74-5.86,3.86-8.72,6.42-8.54-.6,14.56,6.7,3.67,8.63,14.97,2.32-2.67,4.62-2.14,7.06-1.07,2.43,1.08,5.01,2.74,7.73,2.23-2.32-11.22,1.58-.39,.82-11.98,1.22-.8,1.7-.63,1.84,.12l4.12,6.76c1.08,3.34-1.08,2.61-.84,5.21,2.85,.76,1.42,4.87,3.46,7.86-.6-4.14,.66-5.96,2.36-4.5-.86-1.73-1.72-3.47-2.56-5.22,3.52-6.39,3.98,9.52,7.57,3.14l-1.01,3.73c.95-1.15,2.85-1.26,4.66-2.26,1.81-1.02,3.55-2.98,4.11-7.72,.48,1.3,1.25,4.42,.42,5.34,2.51,.45,4.99-2.22,7.33-4.46,2.35-2.23,4.56-3.9,6.81-1.27v2.86c.8-.93,.87-5.47,2.38-2.81,.1,1.17,.01,2.86,.46,2.97,.36-1.04,1.72-5.28,3.15-3.81l-.57,3.31c2.65,1.49,4.21-.69,5.51-3.58,1.3-2.92,2.34-6.51,4.1-7.81,1.43,8.23,5.67,10.29,7.83,11.2l.16,1.18c2.91-.07,4.96-2.23,6.78-4.96,1.82-2.76,3.4-6.02,5.51-8.2,2.65,4.03,5.59,4.21,8.64,3.87,3.06-.34,6.19-1.4,9.52,.27-1.24-1.21-1.82-6.25-1.2-7.33,1.71,1.22,1.39-6.59,3.64,.75h-.47c3.27,6.83,5.14,4.12,7.12,3.62l-3.09-9.56c2.44,2.98,4.39,3.84,6.02,3.64,.81-.1,1.54-.46,2.21-.96,.67-.52,1.28-1.17,1.86-1.83,1.17-1.31,2.23-2.63,3.48-2.94,1.26-.32,2.71,.31,4.72,2.99,.15-2.82,1.61-3.46,1.68-6.25l2.25,4.89c1.93-.15,3.38-.34,4.79-.83,1.4-.51,2.77-1.33,4.45-3.01l1,3.84c2.5-.97-4.6-15.17-2.86-16.48l4.59,6.61c1.85-1.18,4.65-.82,7.01-1.3,2.32-.52,4.24-1.81,3.99-6.05,.61,1.01,1.82,3.01,1.39,3.68,1.83-1,10.02-.42,2.76-8.82,2.16,2.86,3.2,2.29,3.67,.51,.47-1.78,.35-4.7,.23-6.7l3.06,4.34c-2.72-6.54-3.9-7.97-3.06-11.12,.93,.1,3.22,2.83,1.67,2.36,3.47,.65-2.08-4.87,1.71-4.49l1.56,3.15c1.93-1.21,.59-2.42-1.26-6.11-.51-2.47,3.84-1.9,7.51,1.2-1.84-2.26-3.83-5.84-1.97-5.82,1.43,1.11,1.93,2.23,2.16,2.78,2.58-.13,2.45-2.2,2.25-4.02-.19-1.83-.37-3.36,2.45-2.64,1.37,1.09,2.16,1.53,2.7,1.7-2.07,2.21-3.88,3.85-4.03,3.4,3.61,3.32,5.94,1.92,9.61,7.98-.67-2.03-1.93-5.03-2.65-7.52-.7-2.48-.92-4.5,.73-4.73,.44,.2,.88,.4,1.52,.8l.27,.54c.73-.14,.7-.82,.35-1.7,1.11-.12,1.91-.14,2.42-.71,3.39,2.21,3.5-1.07,4.41-1.99-4.4-3.03-2.76-3.82-7.23-5.16,.42,.07,.38,.55,.08,1.33,.02,.24-.04,.46,.14,.74l-.33-.34c-.35,.73-.87,1.65-1.51,2.65-1.58-2.43-2.85-4.55,.33-3.87-2.41-2.52-4.9-5.09-6.04-6.33,6.93,3.06,12.12,2.59,16.23,4.69-.24-2.46,.58-4.61,.41-7.09-.16-2.48-1.19-5.19-5.11-8.55-.67-1.49,3.08,.32,4.66,.7,.61,1,.14,1.57,1.25,2.54-.65-1.55-.12-3.03-.25-4.59-.13-1.57-.86-3.18-3.93-4.89,3.96-.96,5.22,4.08,5.69,.35l1.75,1.34c3.27-.48,4.24-1.92,3.98-3.74-.27-1.83-1.68-3.99-3.08-6.09-1.41-2.11-2.71-4.11-2.73-5.76-.02-1.66,1.35-2.92,5.32-3.75-1,.26-1.46,.4-2.62,.16,4.32-3.25,4-8.14,3.87-12.66-.12-4.6-.04-8.84,5.43-12.61,2.28-2.27-2.16-2.99-5.44-4.71l5.76-.08c-2.12-1.02-4.28-2.01-6.44-2.96-2.31-1.87,1.25-3.18,4.28-4.8,3.02-1.59,5.48-3.53,.86-5.78l-3.85,.64c.72-1.64-2.42-4.99,2.02-4.93-.71-.14-4.04-.33-2.06-1.07l2.99-.22c-1.79-1.25-3.59-2.46-5.42-3.62,.95-1.61,3.91-1.81,6.68-2.14,2.75-.34,5.33-.82,5.32-3.37-1.35-1.75-9.47-4.12-11.33-3.04,.03,.92-1.53,2.19-4.49,2.7l-1.79-1.22c-2.19,.33-4.4,.61-6.55,1.01-2.16,.36-4.29,.73-6.3,1.2-4.07,.77-7.76,1.72-10.64,3.38,1.87,.31,3.74,.73,5.6,1.19l-4.19,1.1c-.15-.53-.3-1.06-.45-1.55-3.9,1.37-.29,1.47,2.21,1.92-2.26,.39-3.81,.8-4.63,1.26,2.86,.37,5.73,.8,8.58,1.3-3.44,.47-6.91-.38-8.73,1.03,1.99,.32,3.91,0,5.67-.27,1.75-.26,3.36-.45,4.69,.29-3.96,1.26-7.24,1.08-3.77,2.1-2.27,.26-3.73,.07-4.75-.33,2.77,.89,1.25,2.62,5.95,3.08-4.94,1.09,1.3,3.59-7.08,3.39,2,.32,6.55,1.94,6.84,2.95-4.97-1.06-5.16-.17-5.43,.85-.3,1.02-.7,2.18-6.04,1.61,4.47,.89,5.36,2.12,5.76,3.42,.36,1.31,.24,2.67,2.56,4.12-.69-.22-2.1-.64-1.62-.78-.91,1.17-3.63,1.18-5.44,1.71,7.34,1.19,8.75,3.45,13.06,5.36-3.68,.21-5.79-.45-7.84-1.18-2.05-.74-4.05-1.56-7.5-1.9,5.97,.9,5.47,3.63,10.5,4.05-4.59,.36-2.33,.63-8.49,0,9.07,2.08,1.35,1.37,6.7,3.56-4.87,.68-8.6-1.54-6.26,.91-1.49,.08-2.93-.48-4.01-1.04-1.08-.56-1.8-1.13-1.8-1.13Zm-4.92,45.84l-.08-.07c.15-.4,.29-.73,.37-.95-.07,.2-.16,.49-.29,1.02Zm-2.49,3.09c.47-.23,.9-.66,1.29-1.17,1.5,1.09,2.85,2.42,2.5,2.68-.79-.97-2.23-.93-3.79-1.51Zm34.99,15.52c.1,1.14-.91,.74-1.85,.17,.16-.38,.29-.86,.36-1.57-.12-.12-.34-.34-.47-.47,.77,.67,1.49,1.31,1.96,1.86Z"/><path class="c" d="M970.47,299.58c-.02-.16-.17-.35-.12-.5-.48-.14-.9-.25-1.26-.32,.41,.42,.82,.84,1.18,1.22,.06-.14,.14-.27,.19-.4Z"/><path class="c" d="M583.77,288.66l-.05,.15c.14-.18,.29-.35,.55-.56-.19,.19-.34,.27-.5,.41Z"/><polygon class="c" points="890.79 312.32 891.34 313.55 891.17 312.33 890.79 312.32"/><path class="c" d="M591.19,259.09c.44-.17,.88-.38,1.23-.65-.33,.11-.77,.36-1.23,.65Z"/><path class="c" d="M590.21,249.42c.53-.55,1.09-1.11,1.65-1.65-.98,.75-1.42,1.26-1.65,1.65Z"/><path class="c" d="M591.8,241.8c-.94,0-1.64,.05-2.29,.1-.01,0-.01,.01-.04,.02l2.33-.11Z"/><path class="c" d="M664.88,318.92c.1,.01,.22-.02,.35-.12,.98-.72,.42-.51-.35,.12Z"/><path class="c" d="M627.74,313.39c.88-.57,1.73-1.13,2.4-1.39-.29-.7-.62-1.07-2.4,1.39Z"/><path class="c" d="M704.4,323.22l-.02,.09c.09,0,.16,.03,.24,.05l-.22-.14Z"/><path class="c" d="M631.45,313.03c.06-1.23-.48-1.36-1.31-1.03,.22,.59,.41,1.42,1.31,1.03Z"/><path class="c" d="M595.39,210.71l.28-.29c-.35-.06-.63-.13-.84-.2l.55,.49Z"/><path class="c" d="M594.83,210.22l-.55-.49c-.03,.17-.02,.33,.55,.49Z"/><path class="c" d="M593.11,208.68l1.17,1.05c.06-.27,.29-.58-1.17-1.05Z"/><path class="c" d="M591.66,219.85l1.92,.29c-.4-.1-1.02-.19-1.92-.29Z"/><path class="c" d="M591.98,222.83c.5-.68,4.23-1.42,3.12-2.46l-1.53-.23c2.82,.68-4.8,1.77-1.6,2.69Z"/><path class="c" d="M567.91,236.05c.47-1.02,.95-2.02,1.46-3.01-2.05,.55-4.81,1.34-5.33-.05-6.07,4.03,4.56-.89,3.88,3.06Z"/><path class="c" d="M565.64,245.63c-1.13-1.54-2.98,.35-4.15,.4,2,.86,2.5,1.03,4.15-.4Z"/><path class="c" d="M592.51,308.54l-3.81,3.01c1.39,.57,1.44-1.21,3.81-3.01Z"/><path class="c" d="M618.86,299.86l1.36-2.85-3.43,2.87c.67,.02,1.38,0,2.06-.02Z"/><polygon class="c" points="601.33 330.56 600.42 330.71 603.28 330.81 601.33 330.56"/><path class="c" d="M708.32,371.5l.53-5.97c-.96,.93-2.16,7.55-.53,5.97Z"/><path class="c" d="M755.66,369.68c.38,3.01,1.64,4.99,2.54,2.08-1.03-.46-1.99-2.83-2.54-2.08Z"/><polygon class="c" points="897.88 361.23 897.63 363.47 898.84 361.23 897.88 361.23"/></g><g><path class="c" d="M1042.1,597.4c-.84-.02-2.15,.21-3.15,.55-1,.3-1.63,.96-1.18,1.43l6.34-.21c-.65-.52-1.3-1.03-2.02-1.77Z"/><path class="c" d="M1031.65,606.52c3.16,.83,8.63,1.82,14.3,.44-6.14-.69-3.66-1.28-10.96-1.79-.85-.94,1.78-2.08,4.09-2.21-1.64-.15,1.14-1.9-2.86-1.89-4.6,2.13-4.59,3.69-.4,5.06-1.33,.53-3,.33-4.17,.38Z"/><path class="c" d="M1003.55,697.36l.95-.15c-.44-.06-.74,0-.95,.15Z"/><path class="c" d="M963.79,737.85c.24-.39,0-.99-.34-1.45-.05,.57-.07,1.08,.34,1.45Z"/><path class="c" d="M952.01,737.93c.28,.05,.47,.03,.7,.04-.51-.36-.86-.5-.7-.04Z"/><path class="c" d="M1003.55,697.36l-2.47,.34c1.72,1.13,1.7,.09,2.47-.34Z"/><path class="c" d="M1047.65,619.93c-.31-.37-.91-.67-1.68-.94,.28,.3,.52,.59,.69,.9,.31,.01,.57,.02,.99,.04Z"/><path class="c" d="M1009.25,672.62l.13-.43c-.63-.36-1.41-.76-2.3-1.19l2.16,1.62Z"/><path class="c" d="M1013.37,654.28c-.32,.36,4.87,1.63,7.12,2.29-2.1-.71-3.05-1.24-3.38-1.7-.99-.22-2.19-.41-3.74-.59Z"/><path class="c" d="M1026.02,624.77l-.73-.57c.23,.15,.44,.4,.73,.57Z"/><path class="c" d="M1003.13,684.58c-.73-.31-1.4-.54-1.81-.66,.61,.28,1.22,.49,1.81,.66Z"/><path class="c" d="M531.04,653.75c.38,.01,.62-.02,.95-.02-.54-.13-.92-.16-.95,.02Z"/><path class="c" d="M558.96,629.59l.23,.35c.99,.21,1.96,.41,2.94,.58l-3.16-.93Z"/><path class="c" d="M934.07,741.09c.06,.04,.07,.03,.11,.05,.08-.75-.08-.53-.11-.05Z"/><path class="c" d="M776.97,779.35c2.01,4.74-3.03,6.18-.03,11.43-.3-2.08,2.47-8.37,.03-11.43Z"/><path class="c" d="M1046.96,620.52c.06,.3,.11,.61,.06,.93,.17-.42,.15-.71-.06-.93Z"/><path class="c" d="M776.94,790.78v.05l.31,.5-.31-.54Z"/><path class="c" d="M899.21,759.89c.38,.86,.77,1.49,1.15,2.08-.19-.51-.5-1.12-1.15-2.08Z"/><path class="c" d="M930.1,755.35l-.99-.31c.48,.3,.77,.35,.99,.31Z"/><path class="c" d="M886.22,771.8c-.52-.28-.85-.96-1.21-.12,.12,.25,.23,.42,.34,.58,0-.76,.18-1.16,.87-.47Z"/><path class="c" d="M869.84,775.96c.18,.38,.36,.65,.54,.98,.14-.13,.31-.27,.46-.4l-1-.58Z"/><path class="c" d="M546.01,714.21c1.22-.99,2.65-1.87,4.09-2.69-3.39,1.73-5.81-.58-4.09,2.69Z"/><path class="c" d="M1044.65,619.99c1.35,.09,2.02,.24,2.31,.54-.06-.22-.17-.43-.29-.64-.79-.04-1.55-.04-2.01,.1Z"/><path class="c" d="M896.81,812.59l-3.14,.03c.95,.28,2.09,.25,3.14-.03Z"/><path class="c" d="M652.71,806.88l-.88,.38c.22,.2,.51,.14,.88-.38Z"/><path class="c" d="M885.13,815.6c-.97-1.7-1.77-2.64-2.51-3.19-.03,.43-.08,.8-.02,1.42l2.53,1.77Z"/><path class="c" d="M550.15,711.49s-.05,.03-.05,.03c0,0,.03-.01,.05-.03Z"/><path class="c" d="M531.33,694.8c.7,3.18,7.03-.3,11.1-.7,2.87,2.97-4.55,3.02-7.64,5.25,2.5,1.81,9.12,1.58,9.41,3.26-1.06,.48-1.35,.93-2.85,1.01,3.06,.29,3.64,1.97,4.54,3.62,.88,1.64,1.93,3.3,5.72,3.26-.5,.42-1,.74-1.47,.99,3.08-1.74,6.38-3.12,8.77-3.99,.6,1.15,4.98,.46,.94,2.69-.17-.77-1.9-.12-3.37,.09l2.36,.48c-5.6,3.73-2.81-.83-7.32,1.02,1.51,.87,3.82,1.49,5.68,2.16,1.85,.68,3.16,1.46,2.77,2.77-5.67,3.2-3.99-3.52-8.04,1.45l.9-4.01c-8.29,6.4-.18-2.17-9.21,4.34,.09,2.48,1.38,3.33,2.65,4.14,1.31,.8,2.6,1.57,2.77,4.03,3.64-.73,4.58-2.7,8.21-3.47,4.29,1.18,1.27,4.11-1.53,6.89-2.8,2.74-5.37,5.3-.46,5.15,2.16-.58,5.03-1.84,7.1-2.35,2.09-.51,3.38-.29,2.42,2.22-2.24,1.02-4.49,2.02-6.74,3,1.79,4.1,10.04-3.71,8.5,2.66-2.79,1.01-3.9-1.37-4.25-.35-3.06,5.68,4.59-.65,5.83,1.11l-4.97,4.16c1.81,1.57,4.39,2.67,7.05,3.67,2.69,.98,5.33,1.98,7.44,3.39-1.61,1.08-3.72,1.76-4.4,3.96,1.69,.65,3.01,1.68,4.2,2.85,1.18,1.19,2.13,2.62,2.94,4.22,1.69,3.1,2.79,6.91,3.95,10.39,1.83-.87,3.64-1.76,5.43-2.67,.37,.4-.85,2.59-2,3.03,.5,3.19,2.36-2.62,4.65-3.58,1.28,.53-.64,3.6-2.38,4.35,3.18-.5,7.03-.59,10.14,.13,1.55,.38,2.88,1.04,3.85,2.04,.99,.98,1.6,2.33,1.67,4.18l-1.63,.9c.79,1.9,3.18,.06,5.28-1.53,2.12-1.59,3.97-2.96,3.88,.04l-1.02,.53c1.21,1.44,2.7,2.56,4.3,3.47,1.6,.89,3.27,1.66,4.8,2.56,1.53,.91,2.97,1.84,4.07,3.26,1.11,1.39,1.9,3.26,2.25,5.71,2.22-3.4,3.42-1.85,4.77-.68,1.34,1.18,2.8,1.95,5.25-3.11,.73,3.32,.68,5.34,.9,7.24,.24,1.88,.74,3.72,2.8,6.49,1.29,1.04,4.69-5.71,6.83-6.15l-1.99,5.51c1.52-1.61,3.02-3.24,4.5-4.87l-1.04,7.04,2.19-.85c-.56-.56-.57-2.97,.09-4.53,1.73-.81,2.96,.68,3.7,2.75,.73,2.07,.97,4.71,.55,6.15,2.62-.94,5.19-1.89,7.73-2.86-.79,2.22-2.07,2.68-3.34,3.87,5.06-4.73-1.11,6.11,3.53,1.77-.05-1.41,1.18-3.29,1.56-4.41,.56,3.82,4.12,4.79,7.08,4.02l-1.49,3.78c2.25,1.16,4.89,1.2,7.6,1.22,1.36,0,2.73-.02,4.1,.02,1.37,.01,2.73,.11,4.05,.39-1.54-2.22,.32-8.99,1.95-9.35l-.59,6.19c1.72-3.56-1.14-2.6,1.78-6.8,1.78,1.08-.01,7.17-1.54,8.92l2.8-1.64c-.2,1.85-.94,2.69-1.52,4.98,.85-1.8,1.61-.05,2.5,1.32,.89,1.36,1.92,2.39,3.2-.78l-.17,1.84c2.68,.47,4.71,.28,6.61,.02,1.9-.3,3.67-.68,5.86-.54,.8-5.29,2.32-3.88,4.13-7.99,2.88,2.12,5.91,6.6,9.77,6.58,2.92-2.36,1.22-4.42,2.7-7.46-.27,4.86,3.55,4.71,1.28,8.03,2.31-.21,3.78-.33,5.43-.84,1.65-.51,3.48-1.37,6.44-3.21-.49-2.03-1.12-2.92-.66-4.56,1.07-.74,2.2,2.16,1.92,4.49l-.3,.48c1.7-1.73,3.41-1.66,5.13-.74,.86,.46,1.72,1.14,2.58,1.91,.86,.75,1.72,1.6,2.57,2.42,3.41,3.29,6.79,6.24,9.45,1.23l-.3,.5,5.34-5.25c2.41,.86-1.48,3.65,.29,6.67,2.89-4.05,5.11-3.72,7.24-3.1,2.12,.6,4.14,1.54,6.43-1.2,1.93,7.13,5.21,6.88,8.55,5.82,3.36-1.03,6.81-2.71,9.48,1.77l-.44-3.37c1.11-3.36,1.62,1.86,2.6,2.58-.27-2.61-1.53-2.95-.83-4.83,2.62-1.18,5.31-1.54,8.07-1.38,1.38,.08,2.77,.29,4.18,.58,1.41,.27,2.83,.63,4.26,1.05,2.87,.83,5.78,1.88,8.69,2.86,2.92,.92,5.84,1.75,8.71,2.21,4.2,.45,.3-17.57,6.29-10.22l-.68,6.42c3.63-4.29,7.76-4.69,11.93-5.13,2.08-.22,4.17-.4,6.16-1,1-.3,1.97-.7,2.91-1.27,.94-.59,1.84-1.34,2.69-2.31-.22,1.51,.09,3.37-.69,3.49,2.48,4.18,6.29-.92,5.6-4.58,1.31,.19,.91,3.26,2.03,4.97,2.23,2.35,3.1-6.55,4.89-2.29,.3,.69-.18,1.55-.42,1.96,.66-2.39,5.26-.53,3.11-5.46,1.75,.91,3.05,.04,4.28-.74,1.23-.82,2.39-1.54,3.93-.31,.16-6.09,5.76,1.53,4.22-6.66,1.88,8.44,6.94,5.32,7.72,.93,.06,2.67,2.34,2.15,2.57,5.82,2.13-.68,3.65-2.8,2.05-6.94,3.39,4.35,4.81,1.75,6.04-.4,1.25-2.16,2.33-3.9,5.47,1.98,2.45-3.28,4.84-6.06,7.19-8.66,2.34-2.61,4.69-4.79,7.03-6.83,2.96,8.11-5.76,3.11-2.37,11.45,2.07-2.66,3.19-5.95,4.48-8.7,1.3-2.72,2.8-4.74,5.75-4.88,1.78,.47,.73,3.76,.84,5.28,1.92-2.75,4.48-3.72,6.94-4.76,2.45-1.05,4.75-2.34,5.96-5.52,.35,.72,.25,1.74,.08,2.55,.77-.69,2.66,.09,.79-3.33l-.39,1.37c-1.98-2.18-2.42-5.25-2.57-8.1-.15-2.86-.03-5.54-.65-6.89,3.75,10.65,5.55,.21,9.93,13.87,.24-.96,.08-2.97-1.3-5.19,1.21,.22,2.23,1.4,2.78,4.46,2.15-3.55-1.03-6.59,1.78-8.1,.94,1.64,.74,2.6,1.55,4.69-.4-4.03-.89-7.97,2.23-7.99,.45,1.06,1.49,2.15,.79,2.56,1.84-1.49,2.23-4.64,2.87-7.33,.67-2.67,1.49-5.05,4.57-4.98,3.45,7.57,2.96,1.25,7.3,6.87,.36-1.12,.7-2.26,1.03-3.38l-2.92-2.12c2.03-1.37,.61-6.71,3.63-6.12,.14,1.15,.26,2.27,.37,3.4,.95-1.24,1.82-2.58,2.72-3.85l-3.64-.53c-.4-4.36-5.73-6.91-2.13-7.27-.03,.94,1.82-1.33,5.44,1.09,0,0,0,0,0,.02-.57-2.49-1.26-5.05,1.18-4.83,1.84,1.41,4.9,6.14,6.11,7.08-1.52-2.63-.71-3.8,.02-5.14,.73-1.31,1.47-2.69-.19-5.47,.67,1.4,3.2,4.13,3.85,4.57l-2.61-4.15c1.86,.37,2.5,.79,4.43,3.05,2.99-1.72-7.02-5.69-1.56-5.68,.06,.49,.67,.89,.74,1.87,2.09-.69,2.93-2.56,3.66-4.42,.73-1.87,1.44-3.63,3.54-4.18,6.09,3.92-.85,3.53,4.47,6.63,.69-1.21,1.07-2.71,1.33-4.32,.26-1.6,.4-3.27,.6-4.87,.16-1.63,.37-3.18,.82-4.5,.46-1.32,1.13-2.42,2.2-3.2l-1.19,.29c-3.83-3.3-2.31-3.28-.08-3.09,2.21,.19,5.19,.53,3.94-1.9,.27,.94,4.13,3.88,3.31,3.09,1.66-1.01,2.18-2.88,2.28-5.24,.04-2.4-.27-5.22-.35-8.28l1.91,1.88c3.02-.62,3.89-4.05,5.94-5.5-1.97-1.8-1.02-2.71-4.71-3.77,4.08,.23,6-.73,6.86-2.16,.87-1.42,.57-3.36,.16-5.27-.39-1.9-.9-3.79-.5-5.26,.42-1.47,1.82-2.5,5.2-2.85-.22,.69,1.51,2.45,1.71,1.9-.13-1.93-.25-3.83-.43-5.73-4.27-1.07-2.73-.24-6.31-.4-2.21-1.48-3.67-3.44-3.29-4.58,2.05,3.03,6.67,2.29,9.32,2.08-1.33-.27-2.63-1.06-3.96-1.41,8.26-.09-8.23-3.12-2.2-4.87l2.15,.85c-.74-1.63-3.3-3.61-2.31-4.78,5.05,.79,1.92,1.99,5.9,3.24,.14-1.03-1.92-2.65-3.34-4.03-1.42-1.38-2.21-2.52,.45-2.78,1.18,1.17,.88,2.36,2.01,3.56,6.3-.4,4.89-1.06,6.17-2.31l-.17,.11c1.15-.93,2.32-1.88,3.45-2.85l-1.78,.53c-6.16-2.76-6.5-4.1-6.24-5.48,.26-1.36,1.05-2.78-2.91-5.18,7.47,4.69,4.57,1.4,10.19,2.66,1.75-.59,3.75-1.67,5.27-1-2.15-1.24-1.14-1.77-.37-2.46,.77-.68,1.29-1.53-1.91-3.19,1.84,.15,.43-1.76,4.98-.77-1.14-2.41-3.27,.1-5.54-.41-2.89-2.08-.79-3.74,1.08-5.73,1.82-1.97,3.37-4.3-.81-7-3.31-4.35-9.55-5.33-12.57-8.96,1.49-.58,3.17-.32,4.48,.12,1.32,.43,2.24,1.02,2.24,1.02,2.76-1.97,2.28-3.57,.13-5.45,1.62,.37,2.99-.03,5.06-.66-.5-1.58-6.76-.91-4.08-3.01,2.07,.28,5.39,.64,7.48,1.37-1.74-1.87-5.27-3.57-7.04-5.36,3.2-.69,4.96,.89,7.09,1.49-1.53-2.15-3.27-5.56-8.41-5.76l-1.71,1.49c-.31-.74,4.35-.74,5.32-.22,4.14,1.59-1.6,2.79-3.45,2.98l-1.26-1.26c-5.38,1.03-4.86,2.25-3.09,3.65,1.79,1.38,4.81,2.97,4.53,4.33l-7.93-.95c2.22,.83,4.4,1.69,6.59,2.59-2.05,.6-6.46,.97-7.66-.28-3.89,1.82,2.82,1.63-1.55,3.16-.68,.16-1.06,.08-1.37-.08,.78,.59,1.57,1.19,2.33,1.8-1.65-.38-5.58,.16-4.42-.87-2.32,1.5-.87,2.76,.39,3.83,1.25,1.06,2.34,1.92-.68,2.33l-.47-.29c1.22,2.22,2.63,2.44,4.6,2.54,1.96,.11,4.46,.07,7.73,2.06-4.8,.41-9.64,.75-14.46,1.03l5.74,.96c-.25,.43-.76,1.28-3.06,.88,3.77,2.07,2.55-.03,6.17,1.33-2.76,.83-2.3,2.38-2.35,3.7-.06,1.31-.58,2.35-5.18,1.92,4.26,1.42,3.66-1.6,6.37,1.18-4.96-.39-4.65,.32-3.69,1.32,.95,.99,2.54,2.31,.12,2.9-4.94-1.5-1.98-2.82-6.8-1.7,4.18,1.31,3.52,2.19,2.01,2.92-1.51,.74-3.89,1.31-3.25,2.26,3.37,.74,3.89,1.77,3.77,3.01-.12,1.24-.93,2.65-.14,4.29-2.19-.72-4.98,4.08-8.13,5.68l-1.09-.41c6.55,2.52,4.47,4.66,5.2,6.95-3.93-1.44-5.37-2.3-6.82-3.84l-.52,1.65c1.99,1.13,2.91,2.03,3.25,3.39l-4.75-2.19c-.27,1.11,.79,2.74,1.32,4.3,.52,1.55,.55,3.05-1.62,3.76,2.21,1.03,5.55,1.79,8.58,2.8,3.02,1.01,5.75,2.3,6.53,4.57-2.47-.92-6.64-2.6-7.28-3.83,.2,.39,1.59,1.81,.32,1.89l-3.52-2.98c-2.36,.52,3.09,2.15,2.24,3.04-3.42-1.54-2.79-.32-5.44-1.69-.22-.4,1.81-.26,.64-1.24-1.13,.88-3.76,1.33-6.53,.57,1.98,.81,4.58,2.13,4.62,3.16-.79,2.25-4.42-1.22-6.74-.87,2.1,1.66-.95,1.75,4.01,4.33-.35,.6-2.73-.49-4.2-.97,.82,1.09,.33,2.41,.36,3.66,0,1.23,.52,2.43,3.47,3.29l.5-.08c.07,.11,.04,.17,.11,.3h0c1.41,3.14-.35,4.67-2.51,5.82-1.07,.59-2.2,1.12-3.1,1.77-.91,.65-1.56,1.44-1.63,2.61l-1.54-1.06c.24,1.6-.28,2.87-.58,4.2-.29,1.34-.34,2.75,.75,4.68-.46,.58-3.78-.75-5.35-2.36,0,2.27,1.51,3.82-2.56,3.89-1.37-3.47-2.61-1.34-.69-2.96-2.71,.82-5.34-.83-3.05,4.43-3.1-3.77-5.65-2.68-5.33-.96l3.65,1.12c-.31,1.38-1.37,1.9-2.41,2.43l-4.25-4.72c-4.31-.93-3.33,2.68-2.86,5.94,.53,3.25,.41,5.97-5.22,2.45,2.09,4.1,3.96,.56,6.69,5.08-1.11,.45-3.61-.6-5.86-1.75-2.28-1.17-4.32-2.41-4.57-2.21-2.23-.39-1.21,1.78-.15,4.11,1.07,2.33,2.14,4.79,.15,4.84,1.72,1.5,5.88,5.89,5.26,9.11-2.36,.82-7.99-5.72-8.03-8,.29-.48,.93-.07,1.39,.54,.05-1.09,.15-2.41-2.04-3.79l1.19,1.94c-1.14-.56-2.24-.34-3.26-.4-1.05-.08-2.02-.44-2.87-2.11,.02,2.66,1.68,3.37,3.36,3.57-2.11-.47-2.97,.14-3.78,.87-.8,.73-1.53,1.6-3.34,1.49,1.08,.77,2.96,2.69,2.57,2.93-5.08,.09,.89,4.57-1,7.07-3.28-1.94-4.01-7.15-4.89-3.18-2.75-1.02-3.53-4.85-3.97-6.74,.11,2.5-1.3,2.55-2.9,1.95-1.59-.58-3.39-1.83-4.22-1.82l.19-2.22c-.1,1.32-.68,1.61-1.25,1.93l2.96,3.5c-1.08-.28-1.67,.03-2.6-1.59,.79,2.96,4.36,6.14,4.95,10.47-2.08-1.45-1.68,3.85-4.94-1.22,3.94,.11-3.23-5.06-1.29-7.3-.11,.89-.68,1.2-1.75,.89-.43-.53-.5-1.13-.49-1.54-5.32-3.21,2.01,6.6-1.02,8.07-1.21-3.18-3.65-5.3-3.78-4.41,1.18-.56,3.18,4.68,3.25,7.57-3.13-1.36-1.24,2.79-2.42,3.04l1.73,.52c1.11,3.21-.1,3.31-1.04,4.96-1.26-2.31,.48-2.25-.52-3.05,.53,3.04-1.04,2.1-2.74,.96-1.72-1.15-3.59-2.54-3.84-.23-1.94-1.63-2.71-5.73-4.21-6.75-.61,5.06-4.36-3.06-5.45,1.27,2.47,3.88,2.21,2.8,2.08,7.62,1.01-1.58,2.03-3.09,2.97-4.71,0,2.42-.05,4.82-.12,7.22,1.35-.46,1.6-3.79,2.67-3.42,.19,3.97-.14,2.88,1.99,6.05-2.25-2.71-2.72-1.42-3.17,.12-.44,1.55-.84,3.38-2.76,1.68l-4.18-10.42c-2.45-1.71-3.2,.21-4.08,2.33-.86,2.15-1.8,4.61-4.3,4.04l1.97,1.35c.98,4.38-2.29,1.55-3.04,3.68-1.11-3.58-2.39-4.59-3.71-6.61,.96,2.61-3.03,.75-1.07,8l-3.36-4.08c-3.91-.92-.67,11.37-4.38,11.16-.16-4.21-2.38-6.32-1.05-9.77-1.08,.29-2.23-.08-1.53,2.42-1.25-2.04-1.64,5.71-3.62,2.56-.02,1.71,.86,5.54-.47,5.58-.33-.7-.48-1.79-.48-1.79,.48,1.79-1.31,2.97,.86,6.68-1.62-2.59-3.01-3.68-4.27-3.98-1.27-.33-2.43,.1-3.56,.59-2.26,.97-4.46,2.15-7.05-2.4-2.17,1.74-4.89,3.55-7.07,4.29-.08-1.13-.36-1.83,.14-1.54-3.74-2.77,.19,10.97-4.14,7.81-2.94-5.63,1.28-3.57-.28-5.62-1.4-6.02-2.36-5.42-3.46-4.13-1.09,1.28-2.34,3.24-4.13-.09l.44-.82c-2.47-3.78-3.62,5.32-6.76,4.94,0,0-.02-1.1-.27-1.84-.53,3.27-1.7,5.57-3.08,7.33-1.38,1.75-2.97,2.9-4.32,3.96,.27-4.9,.98-2.7-.23-7.5-1.21,.86,1.44,7.76-1.01,9.46-1.2-2.51-3.37-4.56-4.26-9.72l2.39-.6c-2.1-6.56-3.1,.64-4.53-.36l-.19-2.96c-3.58,1.38-2.82,8.78-6.94,8.68l.65,2.18c-1.49,7.59-2.27-3.94-3.96,1.77l-1.37-7.4c-1.28,1.92-4.47,7.64-7.03,9.27,1.07-5.67,3.89-8.75,5.47-12.2-1.44,.06-4.82,.95-5.28,4.7,.53-.77,1.11-2.66,1.78-1.56-1.28,6.02-3.43,9.11-6.37,9.21-.49-14.54-7.84-3.21-10.55-14.36-2.38,2.86-4.95,2.35-7.6,1.32-2.66-1.05-5.43-2.6-8.34-2.13,2.37,11.27-1.71,.35-1.09,11.95-1.38,.76-1.92,.58-2.06-.17l-4.3-6.87c-1.02-3.37,1.28-2.58,1.12-5.19-2.99-.84-1.3-4.91-3.28-7.96,.43,4.16-1,5.97-2.69,4.36l2.4,5.37c-4.19,6.17-3.58-9.77-7.78-3.67l1.35-3.65c-1.07,1.07-3.04,1.04-5.02,1.91-1.97,.82-3.96,2.53-5.16,7.17-.34-1.35-.74-4.54,.22-5.35-2.52-.79-5.45,1.66-8.25,3.42-2.8,1.79-5.48,3.04-7.29,.06l.57-2.81c-1,.78-2.02,5.22-3.01,2.27,.15-1.17,.58-2.8,.16-3-.56,.94-2.89,4.76-4.02,3.01l1.33-3.1c-2.31-2.06-4.35-.24-6.4,2.21-2.04,2.45-4.11,5.61-6.33,6.35,.92-8.31-2.6-11.41-4.29-13.05l.22-1.16c-2.71-.91-5.33,.54-7.99,2.4-2.66,1.86-5.43,4.25-8.36,5.43-.82-4.78-3.32-6.25-6.16-7.26-2.83-1.04-5.96-1.77-7.87-4.79,.41,1.64-1.67,6.32-2.78,6.88-.75-1.96-4.76,4.75-2.62-2.62l.38,.25c1.03-7.53-1.84-6.15-3.61-6.91l-3.08,9.55c-.44-7.77-3.92-7.33-7.27-6.9-1.67,.24-3.32,.55-4.43-.03-1.09-.62-1.64-2.12-1.13-5.42-2,1.93-3.39,1.37-5.44,3.28l2.05-4.97c-1.25-1.27-2.17-2.22-3.31-2.89-.57-.34-1.19-.6-1.94-.81-.73-.23-1.57-.41-2.61-.53l2.33-3.16c-1.79-1.23-9.14,12.88-11.32,12.17l2.98-7.5c-1.79-.88-2.83-3.27-4.11-4.97-1.29-1.72-3.01-2.52-6.52-.43,.66-.98,1.95-2.91,2.64-2.86-.72-.57-1.49-2.64-2.72-3.34-1.25-.68-2.92-.15-5.7,4.65,1.95-3.02,1.23-3.71-.44-3.49-.84,.11-1.93,.45-3.02,.83-1.13,.4-2.21,.79-3.1,1.1l3.37-4.09c-5.4,4.4-6.63,5.87-9.86,5.73-.07-.94,2.18-3.68,1.99-2.1,.13-3.45-4.37,2.92-4.59-.86l2.87-2.04c-1.38-1.61-2.37-.12-5.83,2.1-2.42,.69-2.27-3.71,.8-7.45-2.16,1.97-5.69,4.01-5.67,2.13,1.13-1.42,2.24-1.92,2.78-2.16-.01-1.26-.52-1.81-1.24-2.06-.71-.26-1.64-.19-2.53-.14-1.76,.1-3.37,.12-2.29-2.55,1.25-1.23,1.79-1.94,2.05-2.45,1.76,2.08,3.13,3.83,2.7,3.97,3.43-3.48,2.62-5.54,8.55-9.11-1.86,.73-4.73,1.97-7.15,2.59-2.38,.6-4.3,.58-4.15-.95,.29-.39,.57-.77,1.09-1.32l.55-.2c.05-.68-.58-.68-1.46-.46,.19-1.03,.38-1.73,.04-2.26,2.97-2.77,.15-3.16-.29-4.13-4.15,3.36-4.34,1.69-7.02,5.45,.19-.37,.63-.22,1.24,.22,.22,.03,.41,.13,.73,.02l-.41,.23c.58,.46,1.27,1.11,2.01,1.87-2.62,1.08-5.02,1.77-3.49-1.03-3.04,1.68-6.22,3.32-7.77,4.02,2.45-2.93,4.05-5.56,5.49-7.82,1.46-2.27,2.77-4.18,4.54-5.65-1.07-.22-1.98-.65-2.89-1.12-.88-.49-1.77-1-2.83-1.38-2.15-.74-4.86-1.02-9.78,.54-1.63-.23,1.9-2.41,3.11-3.5,1.14,0,1.36,.63,2.75,.17-1.62-.16-2.5-1.3-3.8-2.01-1.31-.71-3.02-1.04-6.24,.32,1.71-3.68,6.37-1.67,3.85-4.19l2.12-.54c1.77-2.68,1.47-4.07,.05-4.96-1.44-.87-3.88-1.28-6.32-1.82-2.45-.52-4.74-1.23-5.8-2.55-1.06-1.31-.76-3.29,2.07-6.15-.69,.76-.98,1.13-2.07,1.6,1.7-5.08-.85-8.81-2.81-12.99-1.94-4.11-3.25-8.64,1.25-13.43,1.77-2.59-2.73-2.35-6.25-3.56l5.67-1.02c-2.27-.64-4.55-1.32-6.8-2.04-2.55-1.7,.9-3.55,3.81-5.3,2.93-1.79,5.34-3.47,.77-5.74l-3.87,.57c.73-1.64-2.16-5.37,2.27-4.92-.7-.19-3.99-.72-1.95-1.27l3,.1c-1.65-1.41-3.28-2.87-4.87-4.38,1.21-1.51,4.18-1.08,6.95-.88,2.78,.21,5.35,.2,5.87-1.78-.99-1.61-8.05-5.36-10.11-5.18-.23,.42-2.1,1.27-5.08,.88l-1.29-1.83c-2.16-.46-4.33-.97-6.46-1.53-2.13-.53-4.23-.99-6.28-1.31-4.13-.46-8.08-.11-11.49,2.01,1.63,1.42,3.28,2.75,4.96,4.03l-4.38,.62c0-.95,.02-1.9,.05-2.88-4.21,1.17-.76,2.64,1.57,3.96-2.3,.05-3.93,.38-4.83,.98,2.71,1.34,5.45,2.62,8.19,3.83-3.48,.19-6.76-1.9-8.81,.18,3.84,1.72,7.82-.95,10.27,1.61-4.09,1.3-7.36,.76-3.98,2.69-2.29,.18-3.72-.25-4.7-1.03,2.66,1.74,1.04,4.39,5.73,5.26-2.5,.77-2.16,2.14-2.26,3.28-.09,1.14-.59,2.06-4.78,2.08,2.01,.5,6.64,2.68,7.06,4.1-5.06-1.12-5.16,.26-5.31,1.94-.13,1.66-.34,3.6-5.72,3.64,4.59,.71,5.71,2.44,6.43,4.42,.36,.98,.59,2.03,1.08,3.01,.51,.98,1.26,1.89,2.61,2.6-.73-.1-2.22-.29-1.81-.67-.49,2.09-3.08,3.07-4.55,4.65,7.39-.86,9.56,1.93,14.39,2.67-3.32,1.82-5.52,1.9-7.74,1.72-2.22-.18-4.45-.61-7.77,.4,5.9-1.17,6.73,3.18,11.5,1.35-3.97,2.72-1.78,2-7.61,4.27,9.15-1.68,1.93,1.42,7.86,1.64-3.81,3.73-8.34,2.8-4.8,5.06-1.19,1.07-2.76,1.17-4.03,.97-1.28-.19-2.26-.68-2.26-.68Zm47.64,56.79l-.08,.07c-.49-.36-.92-.67-1.18-.87,.26,.17,.61,.41,1.26,.8Zm4.02,4.22c-.34-.66-.94-1.3-1.6-1.96,1.22-1.41,2.75-2.53,3.07-2.05-1.12,.62-.96,2.31-1.47,4.02Zm20.6-32.53c1.02,.05,.36,.89-.43,1.66-.28-.19-.66-.37-1.27-.53l-.56,.35c.84-.59,1.63-1.13,2.26-1.47Z"/><path class="c" d="M597.3,726.68c-.15-.01-.37,.08-.49,0-.28,.41-.51,.77-.68,1.09,.51-.29,1.02-.58,1.48-.84l-.31-.25Z"/><path class="c" d="M1004.66,697.18l-.16,.03c.23,.03,.45,.06,.77,.18-.26-.07-.41-.15-.61-.21Z"/><polygon class="c" points="645.73 807.2 646.19 805.93 645.3 806.86 645.73 807.2"/><path class="c" d="M1033.12,677.87c.46,.09,.96,.13,1.42,.04-.34-.09-.86-.08-1.42-.04Z"/><path class="c" d="M1037.98,665.34l2.3-1.41c-1.25,.56-1.89,1.02-2.3,1.41Z"/><path class="c" d="M1042.75,655.74c-.9-.3-1.58-.46-2.22-.61-.01,0-.02,.01-.04,.01l2.26,.6Z"/><path class="c" d="M946.59,787.07c-.11,.09-.21,.21-.26,.39-.4,1.35,0,.7,.26-.39Z"/><path class="c" d="M980.77,750.22c.24,1.08,.45,2.11,.42,2.92,.93-.22,1.52-.57-.42-2.92Z"/><path class="c" d="M897.15,812.59l-.02-.09c-.11,.05-.21,.06-.33,.09h.35Z"/><path class="c" d="M979.38,754.48c1.34,.29,1.76-.34,1.81-1.33-.78,.17-1.76,.26-1.81,1.33Z"/><path class="c" d="M1047.72,610.42l.18-.53c-.35,.03-.64,.03-.86,0l.68,.53Z"/><path class="c" d="M1047.05,609.89l-.67-.52c.02,.26,.08,.48,.67,.52Z"/><path class="c" d="M1044.93,608.29l1.44,1.08c-.02-.41,.11-.94-1.44-1.08Z"/><path class="c" d="M1045.69,624.48l1.94,.18c-.4-.09-1.03-.15-1.94-.18Z"/><path class="c" d="M1046.16,628.7c.47-.98,4.21-2.44,3-3.89l-1.54-.15c1.44,.35,.27,1.12-.86,1.92-1.14,.79-2.22,1.6-.61,2.13Z"/><path class="c" d="M1021.02,643.16c.65-.95,1.26-1.91,1.9-2.88-2.11,.32-4.95,.68-5.28-.73-6.55,3.04,4.69-.27,3.39,3.6Z"/><path class="c" d="M1016.58,651.98c-.65-1.76-2.95-.53-4.08-.85,1.67,1.33,2.08,1.69,4.08,.85Z"/><path class="c" d="M989.39,712.43l-3.73-3.11c-.19,1.37,1.47,1.17,3.73,3.11Z"/><polygon class="c" points="999.4 739.32 1002.58 740.33 999.75 736.82 999.4 739.32"/><polygon class="c" points="969.16 720.71 969.05 719.86 968.84 722.46 969.16 720.71"/><path class="c" d="M871.7,770.67l1.74,5.74c.6-1.25-.78-7.83-1.74-5.74Z"/><path class="c" d="M822.82,784.83c-.87-2.92-2.47-4.68-3.06-1.66,1.18,.29,2.56,2.49,3.06,1.66Z"/><polygon class="c" points="674.22 766.12 675.71 764.47 673.51 765.56 674.22 766.12"/></g><g><path class="c" d="M533.67,1007.08c-.12,1.65,.43,5.33,1.02,4.53l-.18-6.31-.46,.9-.38,.88Z"/><path class="c" d="M539.92,1018.07c.52-3.14,.84-8.59-.46-14.24-.1,6.11-.62,3.63-.67,10.89-.67,.82-1.56-1.84-1.7-4.16-.08,1.64-1.31-1.23-1.25,2.73,1.51,4.73,2.83,4.76,3.62,.62,.45,1.34,.39,3,.47,4.16Z"/><path class="c" d="M615.73,1015.76l-.61-.65c.2,.38,.41,.58,.61,.65Z"/><path class="c" d="M662.22,1010.52c-.32,.22-.35,.86-.25,1.42,.24-.47,.44-.9,.25-1.42Z"/><path class="c" d="M671.37,1015.78c-.21-.16-.36-.22-.54-.33,.29,.53,.53,.81,.54,.33Z"/><path class="c" d="M615.73,1015.76l1.58,1.72c-.28-2.03-.9-1.38-1.58-1.72Z"/><path class="c" d="M548.02,1001.67c-.21,.34-.34,.95-.42,1.73,.17-.3,.34-.55,.52-.75l-.1-.98Z"/><path class="c" d="M596.33,1024.38l-.37,.07c.01,.72,.06,1.59,.12,2.57l.25-2.65Z"/><path class="c" d="M580.87,1027.98c.39,.17-.36-5.12-.6-7.44,.16,2.2,.07,3.28-.17,3.74,.16,1,.4,2.19,.77,3.7Z"/><path class="c" d="M554.58,1022.58l-.33,.79c.08-.25,.24-.49,.33-.79Z"/><path class="c" d="M607.7,1023.56c.16,.78,.34,1.46,.48,1.86-.12-.66-.28-1.28-.48-1.86Z"/><path class="c" d="M775.1,717.24c.37-.08,.6-.15,.92-.23-.54,.04-.92,.11-.92,.23Z"/><path class="c" d="M796.09,693.24l.35,.17c.98-.26,1.94-.51,2.89-.79l-3.23,.62Z"/><path class="c" d="M687.03,1019.66c-.04-.05-.05-.05-.08-.09-.26,.67-.07,.52,.08,.09Z"/><path class="c" d="M814.69,945.93c-2.51-.37-3.5-1.76-4.62-3.04-1.12-1.29-2.37-2.48-5.29-2.65,.97,.4,2.52,1.9,4.29,3.29,1.76,1.38,3.74,2.64,5.62,2.41Z"/><path class="c" d="M548.52,1002.3c.2-.09,.4-.17,.62-.14-.31-.13-.5-.08-.62,.14Z"/><path class="c" d="M804.78,940.23l-.04-.02-.56-.02,.6,.04Z"/><path class="c" d="M719.36,1009.8c-.26-.91-.53-1.58-.81-2.22,.12,.53,.33,1.17,.81,2.22Z"/><path class="c" d="M693.31,1007.36l.75,.58c-.34-.43-.57-.55-.75-.58Z"/><path class="c" d="M730.56,999.79c.41,.33,.68,1.03,.98,.24-.1-.26-.18-.44-.27-.61-.01,.75-.16,1.13-.71,.37Z"/><path class="c" d="M745.22,995.89c-.21-.36-.4-.62-.6-.94-.11,.15-.25,.28-.37,.41l.98,.53Z"/><path class="c" d="M785.7,755.26c1.43-.54,3.03-1,4.62-1.43-3.71,.86-5.37-.78-4.62,1.43Z"/><path class="c" d="M548.45,1004.64c-.11-1.34-.1-2.02,.06-2.33-.14,.08-.27,.21-.39,.34,.07,.79,.17,1.54,.33,1.99Z"/><path class="c" d="M722.48,958.43l.55,.09,.44,.09,.89,.19c-.28-.2-.58-.33-.88-.39-.15-.03-.3-.05-.45-.04-.16,0-.37,.03-.55,.06Z"/><path class="c" d="M793.99,846.89l-.62-.48c-.12,.17,.02,.34,.62,.48Z"/><path class="c" d="M728.92,956.85c.79,1.73,1.4,2.68,1.91,3.27-.05-.42-.07-.77-.21-1.38l-1.71-1.9Z"/><path class="c" d="M790.38,753.82h0Z"/><path class="c" d="M775.4,742.84c.23,1.94,6.92-.44,10.95-.82,2.41,1.93-4.86,2.07-8.23,3.54,2.09,1.07,8.63,.97,8.57,2.1-1.12,.29-1.49,.58-2.96,.6,5.77,.5,1.11,4.47,8.32,5.02-.59,.24-1.16,.41-1.67,.54,3.41-.9,6.92-1.57,9.43-1.96,.27,.87,4.66,.89,.19,2.01,.04-.57-1.79-.3-3.25-.3l2.13,.59c-6.35,1.96-2.47-.87-7.28-.03,2.42,1.41,8.18,2.61,6.56,4.31-6.31,1.35-2.68-2.87-8.03-.07l2.06-2.54c-9.75,3.35,.48-1.4-10,1.93-1.36,3.06,3.76,2.54,2.36,5.6,3.64,.05,5.2-1.06,8.85-1,7,2.99-15.54,5.62-6.6,7.19,4.36,.1,12.48-.79,8.51,1.92l-7.32,.34c-.33,2.78,10.62,.06,6.15,3.58-2.9-.11-2.69-1.79-3.49-1.26-5.45,2.62,4.28,.72,4.47,2.14l-6.36,1.16c1.4,2.71,6.42,5.29,7.98,8.37-1.93,.05-4-.26-5.88,.71,3.67,3.64,.16,8.66-3.3,12.82l5.68,.97c-.03,.35-2.45,.86-3.56,.58-1.98,1.68,3.53-.23,5.78,.3,.46,.83-3.09,1.4-4.81,1,2.48,1.12,5.16,2.81,6.51,4.65,1.36,1.83,1.36,3.8-1.55,5.39l-1.69-.44c-2.13,2.29,11.56,1.8,6.49,4.14l-1.01-.34c-1.1,2.45-.3,4.92-.3,7.29-.02,2.36-.75,4.63-4.94,6.49,8.04,.56-3.52,4.67,7.69,4.9-5.56,2.73-7.56,1.96-11.31,5.65-.52,.98,6.97,1.57,8.11,2.86l-5.85-.09,6.1,1.82-7.02,.71,1.48,1.2c.36-.45,2.65-.9,4.34-.78,2.61,1.93-4.26,4.29-7.25,4.18,1.59,1.47,3.19,2.97,4.73,4.48-2.35-.23-3.11-.98-4.57-1.62,5.82,2.58-6.19,.05-.85,2.41,1.35-.19,3.47,.36,4.65,.49-3.6,.81-3.76,3.12-2.44,4.95l-3.99-.65c-.65,1.48-.28,3.13,.15,4.84,.42,1.7,.95,3.48,.73,5.19,2-1,8.92,.08,9.47,1.21l-6.19-.34c3.7,1.13,2.46-.79,6.92,1.15-.89,1.24-7.1-.02-9-.99l1.92,1.83c-1.85-.15-2.76-.64-5.09-1.04,3.72,1.16-6.5,1.76-.01,3.6l-1.83-.18c-.61,3.26,1.33,5.15,1.09,7.87,5.24,1.03,3.87,1.87,7.95,3.54-2.03,1.76-6.69,3.03-6.75,5.49,2.19,2.28,4.28,1.54,7.18,3.05-4.76-1.02-4.92,1.44-8-.64,.02,1.49,.03,2.45,.39,3.61,.33,1.14,1.01,2.48,2.38,4.84,2.02,.19,2.98-.01,4.5,.7,.57,.9-2.4,.92-4.6,.13l-.43-.32c1.47,1.55,1.09,2.62-.05,3.45-1.16,.82-3.09,1.4-4.99,1.88-3.81,.98-7.05,1.77-3.01,5.1l-.39-.35c1.21,1.66,2.4,3.36,3.57,5.11-1.36,1.06-2.99-2.33-6.17-2.53,2.98,3.22,2.07,4.38,.96,5.26-1.11,.91-2.57,1.42-.86,3.98-3.42-1.25-5.24-1.43-6.29-1.1-1.05,.33-1.28,1.26-1.38,2.31-.05,.52-.07,1.09-.16,1.6-.1,.5-.25,.96-.54,1.31-.57,.7-1.67,.98-3.9,.2l2.84,1.83c2.31,2.53-2.06-.42-2.99-.49,2.16,1.5,2.92,1.19,4.13,2.62-.12,1.79-.89,3.23-2.13,4.22-.64,.49-1.37,.89-2.16,1.23-.8,.34-1.63,.63-2.57,.79-3.66,.77-7.79,.54-10.81,1.02-1.04,.25,1.47,3.84,3.31,6.83,1.85,2.95,3.02,5.42-.57,2.97-1.01-1.84-2.04-3.67-3.09-5.49,.27,2.09-.1,3.48-.75,4.48-.17,.25-.35,.48-.55,.68-.21,.19-.43,.35-.67,.51-.47,.31-.97,.56-1.47,.81-.5,.25-1,.49-1.48,.77-.48,.27-.97,.54-1.39,.92-.86,.76-1.48,1.92-1.8,3.86-.38-1.41-1.2-3.11-.82-3.29-1.39-1.81-2.17-1.58-2.41-.39-.25,1.18-.01,3.28,.72,5-.81-.1-1.49-3.02-2.61-4.59-.94-1.06-.85,.54-.91,1.84-.04,1.32-.15,2.41-1.19,.38-.34-.66-.29-1.47-.26-1.86,.23,2.26-2.78,.43-.47,5.19-.61-.44-1.05-.45-1.41-.26-.37,.18-.67,.54-.96,.9-.59,.71-1.19,1.34-2.29,.05,.4,2.95-.53,2.5-1.28,2.31-.77-.23-1.37-.19-.49,3.87-2.06-8.35-4.56-6.03-4.89-1.8-.08-2.64-1.72-2.39-1.93-6.02-1.51,.43-2.59,2.29-1.42,6.55-4.92-9.48-4,9.28-8.27-3.3-3.62,5.46-7.21,9.4-10.91,12.22-1.57-8.43,4.36-1.77,2.38-10.55-3.17,4.26-3.95,11.94-8.22,10.69-1.23-.94-.17-3.75-.13-5.26-3.18,4.24-7.67,.75-10.2,6.02-.15-.78,.05-1.71,.28-2.43-.63,.42-1.83-.91-.99,2.89l.46-1.17c2.21,5.32-.38,12.13,.08,15.08-1.04-11.18-3.98-2.06-4.91-16.26-.3,.81-.51,2.73,.11,5.27-.82-.61-1.33-2.06-1.23-5.1-2.03,2.57-.35,6.46-2.58,6.82-.36-1.85-.06-2.66-.26-4.88-.4,3.84-.81,7.67-2.99,6.47-.11-1.14-.61-2.55-.05-2.63-3.1,1.19-3.58,10.68-7.8,7.9-.54-8.25-1.72-2.41-3.27-9.34l-1.49,2.45,1.42,3.23c-1.68,.21-2.16,5.57-4.04,3.57l.68-3.11-2.86,1.93,2.28,2.29c-.98,3.92,1.9,8.77-.7,7.27,.31-.79-1.68,.24-3.35-3.7,0,0,0,0,0-.02-.39,2.38-.79,4.88-2.36,3.38-.75-2.17-1.23-7.75-1.72-9.19,.31,5.98-3.58,2.36-3.42,8.76,.06-1.52-.62-5.18-.87-5.91l.22,4.86c-1.06-1.37-1.31-2.08-1.75-5.02-2.48-.42,2.43,8.7-1.06,5.42,.14-.42-.09-1.11,.22-1.92-3.14-1.46-4.77,4.03-7.76,2.18-2.07-6.87,1.89-2.14-.08-7.89-3.41,1.97-6,9.82-9.86,8.83l.81,.65c1.35,10-3.55-4.4-4.48,.6,.3-.82-.44-5.61-.35-4.48-2.72-1.14-4.51,3.36-7.63,7.14v-2.63c-1.85-2.02-4.01-.63-5.77-1.51,0,2.63-.96,2.37,.24,5.98-7.35-13.65-7.74,9.41-14.1-1.95,.5-.12,.82-2.44,.41-2.37l-3.2,2.97c1.03,4.28,.92,2.54,2.27,5.77-.01,2.64-.69,4.81-1.59,4.97,1.13-3.15-1.21-6.95-2.33-9.24,.35,1.31,.36,2.81,.65,4.15-3.21-7.37,1.18,8.77-2.29,4.02l-.25-2.29c-.77,1.32-1.15,4.48-2.3,4-1.28-4.94,.63-2.51,0-6.64-1.41,.53-1.29,9.97-3.45,5.2,.39-1.5,1.28-1.67,1.66-3.16-2.43-5.64-2.34-4.12-3.57-4.87l.13,.12-2.91-2.25,.89,1.49c.34,13.37-3.32,3.01-4.39,11.96,1.08-8.49-.37-4.75-1.11-10.46-.88-1.48-2.12-3.09-2.11-4.73-.42,4.77-2.51-3.3-3.07,3.67-.36-1.81-1.27,.02-1.74-4.62-1.27,1.68,.86,3.13,1.1,5.44-1.35,6.64-6.64-6.73-8.65,2.38-2.35,3.98-1.95,10.23-4.21,13.71-1.34-2.8-.24-6.79-.24-6.79-1.86-2.48-2.88-1.83-3.96,.48,.05-1.64-.43-2.96-1.15-4.95-1.03,.63,.21,6.78-1.63,4.28-.04-2.08-.18-5.4,.06-7.52-1.05,1.86-1.85,5.47-2.97,7.31-.79-3.15,.15-4.97,.33-7.12-1.3,1.65-3.48,3.43-3.29,8.55l1.21,1.68c-.52,.32-.86-4.31-.58-5.29,.75-4.14,2.09,1.51,2.42,3.34l-.8,1.31c2.45,10.63,3.64-2.27,5.64-1.91l.3,7.94,1.07-6.78c.72,1.98,1.64,6.3,.84,7.61,1.96,3.66,.83-2.96,2.66,1.17,.23,.65,.23,1.04,.15,1.37l1.03-2.53c-.03,1.68,1.04,5.49,.03,4.48,3.14,4.15,3.09-6.45,4.91-.67l-.13,.51c3.01-3.17-.54-5.79,.97-12.91l3.9,13.88-.55-5.79c.38,.15,1.14,.48,1.37,2.79,.69-4.12-.61-2.46-.43-6.28,2.51,4.97,4.25-3.18,6.09,5.89-.09-4.45-2.15-3.1-.84-6.42,2.09,9.73,1.81-2.02,4.07,2.24,.35,5.14-1.55,2.69,.73,6.97-.46-8.72,3.32,1.39,4.35-.47-1.06-6.82,2.36-3.31,4.16-5.95,.24,2.31,4.73,3.05,7.19,5.17l.14,1.15c-.78-6.94,1.53-6.01,2.81-7.7,.65,4.13,.66,5.79,.15,7.78l1.43-.28c-.04-2.26,.2-3.5,1-4.45l.53,5.2c1.86-.62,2.79-6.72,5.84-3.72-.71-4.82-4.29-13-2.27-16.65,.55,2.57,1.43,6.99,.94,8.17,.16-.37,.41-2.29,1.05-1.26l-.26,4.54c1.45,1.72-.06-3.74,.9-3.49,.64,3.7,1.13,2.52,1.52,5.48-.16,.4-1.05-1.39-1.13,.12,1.12,.49,2.73,2.46,3.63,5.18-.46-2.09-.88-4.97-.23-5.59,1.85-.61,1.44,4.33,2.89,6.03,0-2.65,1.69-.21,.74-5.74,.56-.07,1.13,2.48,1.61,3.94,.55-2.62,4.48-1.53,2.31-7.2l-.32-.34c.03-.12,.08-.14,.12-.27h0c2.23-6.07,7.27,1.92,10.03-1.04l.33,1.84c1.52-2.46,4.02-2.04,4.64-6.26,.56-.1,1.96,3.12,2.13,5.36,1.2-1.66,.98-3.76,3.65-1.11-.86,3.49,1.04,2.76-1.06,2.64,2.19,1.24,3.18,4.11,4.27-1.3,.2,4.86,2.55,5.68,3.19,4.09l-1.97-3.13c.88-.88,1.85-.63,2.82-.4l.69,6.3c5.33,6.81,4.55-14.19,9.92-2.12,.19-4.54-2.69-2.65-2.75-7.91,1.94,.5,5.52,9.05,6.08,8.96,3.11,2.97,.53-9.5,3.54-7.65-.76-2.14-2.21-7.99-.71-10.45,1.94,.47,4,8.85,3.22,10.85-.39,.27-.73-.39-.86-1.15-.42,.92-.99,2.02,.18,4.28l-.2-2.26c1.32,2.08,3.73,1.36,3.87,5.11,.94-2.38-.13-3.75-1.36-4.7,2.91,2.76,3.59-.61,6.37,1.08-.61-1.15-1.47-3.68-1.09-3.73,3.99,2.06,.69-4.5,2.84-5.92,1.99,3.11,1.11,8.14,2.91,4.86,1.89,2,1.47,5.81,1.25,7.72,1.3-4.69,4.57,2.01,5.96,2.55l-.78,2.01c.47-1.19,1.03-1.27,1.6-1.37l-1.53-4.3c.82,.64,1.39,.55,1.74,2.39,.11-3.04-1.99-7.25-1.42-11.49,1.33,2.07,2.21-2.95,3.69,2.85-3.18-1.43,1.49,5.83-.68,7.25,.31-.79,.87-.88,1.7-.23,.23,.64,.15,1.23,.03,1.61,3.71,4.71-.1-6.88,2.68-7.3,.31,3.38,1.9,6.14,2.21,5.35-1.13,.16-1.64-5.41-1.13-8.15,2.29,2.22,1.54-2.3,2.52-2.19l-1.3-1c-.31-3.38,.66-3.12,1.68-4.41,.63,2.55-.76,2-.09,3.04,.19-6.09,4.31,5.39,5.42,1.09,1.34,2.06,1.35,6.19,2.43,7.55,1.27-4.72,3.24,4.06,4.77,.07-1.55-4.31-1.44-3.2-.75-7.85l-3.06,3.87,1.05-6.94c-1.13,.16-1.78,3.27-2.6,2.65,.39-3.85,.5-2.72-.78-6.3,2.88,6.35,2.23-4.49,4.9-.35l2.19,11.01c3.65,4.35,3.55-6.62,7.55-4.56l-1.5-1.68c-.44-4.46,2-1.05,2.74-3.05,.65,3.7,1.63,4.89,2.57,7.08-.62-2.71,2.57-.27,1.36-7.67l2.54,4.52c3.19,1.41,.99-11.12,3.92-10.42,.03,4.16,1.78,6.51,.59,9.73,.9-.15,1.84,.36,1.32-2.19,1,2.19,1.44-5.46,2.98-2.14,.03-1.68-.61-5.58,.51-5.52,.28,.71,.39,1.81,.39,1.81-.38-1.82,1.12-2.86-.72-6.69,2.72,5.36,4.83,4.67,6.71,3.73,1.9-1.01,3.59-2.18,6.45,2.2,.88-.9,1.84-1.92,2.79-2.8,.96-.88,1.92-1.63,2.8-2.11,.29,1.09,.68,1.74,.18,1.51,3.95,2.25-2.46-10.57,1.77-8.17,3.88,4.91-.19,3.67,1.63,5.38,2.64,5.58,3.42,4.77,4.08,3.31,.68-1.47,1.19-3.54,3.77-.86l-.16,.9c1.7,1.48,2.14-.07,2.45-2.02,.31-1.97,.49-4.27,1.88-4.57,0,0,.43,1.02,.91,1.63-.75-3.22-.7-5.71-.32-7.72,.38-2.01,1.08-3.56,1.56-5,2.08,4.44,.49,2.77,3.62,6.57,.55-1.23-4.63-6.37-3.66-8.74,2.07,1.78,4.73,2.73,8.03,6.81l-1.66,1.51c2.42,2.44,3.01,1.95,3.17,.91,.16-1.04-.11-2.63,.7-2.54l1.67,2.45c1.1-1.49,.49-3.7-.03-5.75-.53-2.07-.9-3.89,.57-4.88l-1.74-1.45c-1.73-3.42-.79-2.88,.36-2.2,1.14,.69,2.47,1.53,1.29-1.12l5.55,5.09c-.13-1.11-.52-3.18-.93-5.33-.38-2.14-.7-4.27-.46-5.53,3.2,4.67,3.36,8.66,4.36,12.26,1.03-.88,2.83-3.67,.6-6.68,.17,.87,1.02,2.63-.17,2.2-3.1-5.29-3.87-8.57-2.25-10.33,5.33,4.96,7.11,4.29,8.8,3.09,1.66-1.22,3.06-2.95,8.19-.35-.66-3.49,.99-5.06,3.35-6.46,.6-.35,1.2-.69,1.8-1.05,.59-.36,1.18-.74,1.73-1.16,1.11-.83,2.08-1.82,2.61-3.13-10.77-4.03,.56-1.53-9.74-7-.08-1.4,.29-1.69,1-1.43,2.59,.07,5.22,.08,7.86,.03,3.44,.75,1.71,2.23,4.07,3.34,2.13-2.09,4.95,1.22,8.56,.87-3.88-1.51-4.9-3.54-2.77-4.31-1.94-.08-3.87-.18-5.8-.31-1.94-3.09,.6-2.75,3.18-2.49,2.58,.28,5.22,.47,3.18-2.59l2.85,2.64c-.58-1.39,.19-3.12,.11-5.19-.05-2.06-1.1-4.45-5.11-7,1.37,.16,4.51,.84,4.99,1.96,.75-.99,.78-2.34,.5-3.79-.32-1.45-.97-3.02-1.5-4.48-.54-1.47-.95-2.84-.84-3.95,.09-1.11,.72-1.97,2.35-2.42l2.62,1.14c-.54-1.08-4.7-2.92-1.65-3.17,1.11,.37,2.63,1.11,2.9,.77-.41-.35-1.44-1.24-2.15-2.11-.72-.87-1.1-1.73-.16-2.06l2.85,1.76c2.36-1.71,.91-3.9-1.27-6.08-2.22-2.19-5.18-4.38-5.75-6.33,4.09,.89,6.98,.64,9.07-.05,2.07-.68,3.31-1.78,4.14-2.52l1.15,.28c.5-1.24,.43-2.49,0-3.74-.44-1.25-1.27-2.49-2.21-3.73-1.9-2.48-4.34-4.92-5.68-7.43,4.67-.8,6-3.15,6.71-5.77,.75-2.63,1.01-5.51,3.72-7.62-1.57,.58-6.48-.68-7.25-1.56,1.79-.95-5.53-3.4,2.1-2.66l-.18,.37c7.57-.25,5.71-2.67,6.03-4.4l-10-.88c7.45-1.81,6.21-4.9,4.8-7.64-1.42-2.76-3.12-5.17,3.45-6.29-2.48-1.14-2.43-2.48-4.94-3.57l5.38,.1c1.38-3.01,2.1-4.55,.75-8.27l3.86,.72c.33-2.15-15.55-2.44-15.89-4.3l8.01-.75c-.12-1.81,1.56-3.68,2.34-5.54,.78-1.85,.62-3.69-3.09-5.3,1.18,0,3.5,0,3.85,.57,.15-1.71,5.07-6.95-5.89-5.66,7.16-.47,.49-3.78-2.82-5.45l5.3-.08c-6.87-1.15-8.72-1.06-10.75-3.15,.65-.59,4.19-.8,2.89,.01,2.64-2.01-5.11-.98-2.48-3.35l3.44,.51c.25-1.87-1.55-1.57-5.56-2.22-2.21-.95,1.02-3.55,5.75-4.29-2.93,.03-6.91-.57-5.65-1.78,1.79-.33,2.94-.05,3.51,.09,3.29-3.44-6.6-3.86-1.66-6.51,1.74-.24,2.59-.48,3.1-.71,.15,2.44,.08,4.42-.33,4.28,4.86-.51,5.48-2.59,12.36-1.73-3.84-1.23-12.08-3.03-10.03-5.2,.46-.15,.91-.29,1.65-.45l.57,.13c.43-.5-.07-.84-.93-1.12,.72-.71,1.26-1.17,1.26-1.77,3.98-.72,1.88-2.54,1.95-3.55-5.29,.76-4.61-.62-8.81,1.14,.36-.2,.66,.1,.95,.72,.17,.13,.28,.29,.6,.35h-.47c.23,.61,.45,1.43,.65,2.37-2.79-.44-5.15-.95-2.34-2.39-3.47-.06-7.03-.15-8.72-.24,7.21-2.26,10.86-5.38,15.36-6.37-3.38-2.57-2.96-6.78-13.17-7.1-1.4-.63,2.69-1.4,4.2-1.95,1.07,.33,1.01,.93,2.47,.97-2.8-1.29-1.76-4.83-8.75-4.1,2.78-2.6,6.56,.14,4.96-2.56l2.18,.04c5.06-3.78,.23-5.39-4.19-7.05-4.44-1.68-8.49-3.4-2.02-7.87-.78,.6-1.14,.89-2.28,1.2,2.44-4.15,.25-7.56-1.51-10.99-1.75-3.44-3.09-6.91,1.04-11.52,1.53-2.44-2.89-1.67-6.49-2.11l5.49-1.72-6.93-.56c-2.7-.9,.43-2.97,2.99-5.04,2.57-2.07,4.56-4.15-.35-4.89l-3.63,1.42c.38-1.51-3.27-3.62,1.08-4.52-.72,.04-4,.58-2.19-.45l2.89-.8-5.84-1.94c1.4-3.1,11.62-2.7,11.14-6.63-1.5-1.11-9.56-1.66-11.34-.55,.04,.65-1.37,1.97-4.25,2.85l-1.86-.8c-4.28,1.13-8.64,2.16-12.58,3.45-3.94,1.27-7.48,2.75-10.05,4.98,1.92,.14,3.84,.32,5.76,.5l-3.96,1.78-.72-1.58c-3.63,2.02-.02,1.64,2.52,1.68-2.16,.76-3.62,1.46-4.34,2.07l8.69-.22c-3.29,1.12-6.87,.88-8.37,2.68,4.04-.07,7.27-2.88,10.17-1.98-3.64,2-6.88,2.53-3.26,2.8-2.17,.73-3.63,.85-4.72,.66,2.91,.32,1.8,2.38,6.49,1.75-4.56,2.22,2.11,3.14-6.05,5.04,2.02-.16,6.82,.23,7.39,1.1-10.16,.62,.26,3.66-10.31,5.66,9.07-.79,4.95,3.64,10.33,4.8-.73,.03-2.2,.1-1.79-.2-.45,1.43-3.02,2.38-4.51,3.55,7.31-1.43,9.4,.2,14.12,.32-6.69,3.06-8.75,.87-15.4,2.8,5.89-1.34,6.47,1.44,11.27-.11-4.1,2.11-1.9,1.48-7.81,3.34,9.16-1.67,1.78,.79,7.58,.63-4.15,2.65-8.46,2.17-5.3,3.5-2.62,1.45-6.19,.43-6.19,.43Zm23.13,42.77h-.11l-.42-.9c.1,.19,.24,.45,.52,.9Zm.52,3.87c.15-.49,.12-1.09,.02-1.7,1.82-.34,3.72-.41,3.67,0-1.25-.08-2.2,.96-3.69,1.71Zm35.76-12.82c.83,.56-.18,.91-1.26,1.14-.13-.3-.35-.64-.78-1.06h-.66c1.02-.06,1.98-.11,2.69-.07Z"/><path class="c" d="M827.71,776.37c-.13-.08-.36-.1-.42-.22-.45,.19-.83,.37-1.14,.54,.58,0,1.17,.01,1.69,.02-.05-.11-.07-.23-.13-.34Z"/><path class="c" d="M615.01,1015.01l.11,.1c-.11-.19-.21-.39-.31-.72,.1,.24,.13,.41,.21,.61Z"/><polygon class="c" points="791.46 842.66 792.81 842.68 791.64 842.33 791.46 842.66"/><path class="c" d="M590.11,1000.8c-.12-.46-.28-.92-.52-1.3,.07,.34,.28,.8,.52,1.3Z"/><path class="c" d="M580.56,1001.2l-1.63-1.65c.75,.97,1.25,1.41,1.63,1.65Z"/><path class="c" d="M572.95,999.78c.06,.94,.15,1.64,.23,2.28,0,.01,.01,.01,.02,.04l-.25-2.32Z"/><path class="c" d="M685.75,972.43c.09-.05,.17-.13,.23-.29,.44-1.15,.08-.66-.23,.29Z"/><path class="c" d="M654.26,991.4c.18-1.02,.35-2.02,.61-2.69-.68-.29-1.17-.3-.61,2.69Z"/><path class="c" d="M722.23,958.39l.02,.09c.08-.04,.15-.03,.23-.05l-.25-.04Z"/><path class="c" d="M656.47,988.49c-.81-.92-1.27-.6-1.6,.22,.56,.25,1.25,.68,1.6-.22Z"/><path class="c" d="M541.63,1002.05l-.37-.18c.05,.35,.07,.64,.07,.86l.3-.68Z"/><path class="c" d="M541.33,1002.73l-.3,.67c.17-.02,.32-.08,.3-.67Z"/><path class="c" d="M540.42,1004.84l.62-1.44c-.28,.02-.64-.1-.62,1.44Z"/><path class="c" d="M551.39,1003.17l-.17-1.93c0,.41,.05,1.03,.17,1.93Z"/><path class="c" d="M554.18,1002.19c-.75-.34-2.32-3.84-3.1-2.49l.13,1.54c.03-2.92,2.79,4.28,2.97,.96Z"/><path class="c" d="M569.96,1023.99l-2.7-1.14c.75,1.97,1.75,4.62,.7,5.29,4.06,5.59-1.35-4.45,1.99-4.15Z"/><path class="c" d="M578.05,1025.71c-1.17,1.16,.5,2.95,.62,4.12,.54-1.99,.66-2.49-.62-4.12Z"/><path class="c" d="M632.84,1016.06l.76,4.8c.88-.88-.34-1.85-.76-4.8Z"/><polygon class="c" points="638.59 989.42 637.06 986.64 637.42 991.11 638.59 989.42"/><polygon class="c" points="651.22 1022.25 650.91 1023.02 652.26 1020.97 651.22 1022.25"/><path class="c" d="M743.97,1001.21l-2.07-5.62c-.44,1.25,1.28,7.76,2.07,5.62Z"/><path class="c" d="M782.28,973.58c2.32,1.93,4.63,2.44,3.26-.29-1.07,.41-3.37-.64-3.26,.29Z"/><polygon class="c" points="839.06 855.03 841 856.01 839.42 854.28 839.06 855.03"/></g></svg>