<?xml version="1.0" encoding="UTF-8"?><svg id="a" xmlns="http://www.w3.org/2000/svg" viewBox="0 0 1554 1554"><defs><style>.b{fill:#a532f0;}.c{fill:#252525;}</style></defs><polygon class="b" points="529.51 247.86 787.08 101.99 1044.09 247.86 1044.09 405.39 787.08 251.11 529.51 397.99 529.51 247.86"/><path class="c" d="M529.51,521.19h135.33v328.12c0,20.76,4.62,41.33,14.09,59.8,15.01,29.27,45.71,61.33,108.15,60.24,57.09-1,87.26-25.17,103.16-49.1,11.66-17.55,17.52-38.31,17.52-59.38v-339.67h136.33v341.31c0,3.17,.02,6.33,.09,9.5,.57,24.99-2.82,224.89-257.1,224.99-254.17,.11-258.68-188.91-257.77-219.29,.15-5.01,.2-10.02,.2-15.03v-341.49Z"/></svg>