<?xml version="1.0" encoding="UTF-8"?><svg id="a" xmlns="http://www.w3.org/2000/svg" viewBox="0 0 1001 1000"><defs><style>.b{fill:#fff;}.c{fill:#fdffff;}.d{fill:#2abdef;}</style></defs><rect class="d" x="1" width="1000" height="1000"/><path class="b" d="M47.43,367.22c-13.71,10.94-17.02,30.48-8.41,45.76,31.94,56.67,131.43,228.18,168.98,234.02,42.89,6.67,51.26-33.9,51.95-37.71,.04-.23,.09-.45,.15-.67,1.94-7.5,31.73-121.6,55.9-150.61s59-88,22-115-80,42-98,103-36,97-49,79-91.1-145.14-102.78-151.04c-1.1-.55-2.13-1.23-2.92-2.17-8.72-10.44-23.74-15.84-37.87-4.57Z"/><path class="c" d="M376.71,629.63l25.44-49.35c4.2-8.15,12.61-13.28,21.79-13.28h53.76c9.53,0,18.21,5.52,22.22,14.16,9.83,21.17,29.71,59.1,47.81,63.58,25.28,6.26,43.28-9.74,27.28-47.74s-83-236-85-240c-3.61-7.21-29.75-37.2-63.71-5.19-3.11,2.93-5.37,6.66-6.58,10.76-16.52,56.08-74.46,194.88-79.37,206.63-.24,.59-.46,1.17-.66,1.77-1.65,5.02-8.9,28.48-6.8,47.76s24.19,28.9,39.26,17.04c2.58-2.03,3.45-3.61,3.74-4.34,.24-.62,.54-1.22,.84-1.82Z"/><path class="d" d="M442.16,474.07l-13.69,28.53c-2.54,5.28,1.31,11.4,7.17,11.4h26.06c4.86,0,8.01-5.13,5.82-9.46l-15.47-30.57c-2.06-4.08-7.91-4.01-9.88,.1Z"/><path class="b" d="M683.95,381.46l65.35-29.32c12.49-5.6,26.8-6.15,39.46-.92,9.77,4.04,17.6,11.18,13.16,23.77-2.38,6.74-7.47,12.2-13.87,15.39-41.01,20.46-58.45,36.93-58.45,36.93,0,0-26.67,16.77,10.94,39.92,8.51,5.24,15.28,12.98,18.69,22.37,4.31,11.86,4.16,25.06,1.88,37.65-5.14,28.39-21.07,53.7-43.88,71.37l-50.47,39.09c-7.62,5.9-17.24,8.67-26.81,7.57-15.99-1.84-36.6-7.88-24.95-27.3,18-30,59-50,76-72,15-21,19-42-18-65-16.96-10.54-21.94-29.7-22.37-47.35-.54-22.48,12.81-42.98,33.32-52.19Z"/><path class="b" d="M863.93,385.57l65.35-29.32c12.49-5.6,26.8-6.15,39.46-.92,9.77,4.04,17.6,11.18,13.16,23.77-2.38,6.74-7.47,12.2-13.87,15.39-41.01,20.46-58.45,36.93-58.45,36.93,0,0-29.55,18.58,17.42,43.63,16,15.24,17.67,36.52,14.09,56.32-5.14,28.39-21.07,53.7-43.88,71.37l-50.47,39.09c-7.62,5.9-17.24,8.67-26.81,7.57-15.99-1.84-36.6-7.88-24.95-27.3,18-30,59-50,76-72,15-21,19-42-18-65-16.96-10.54-21.94-29.7-22.37-47.35-.54-22.48,12.81-42.98,33.32-52.19Z"/></svg>